{"glyphs":{"0":{"ha":908,"x_min":-6,"x_max":915,"o":"m -6 -160 l -6 -360 l 915 -360 l 915 -160 l -6 -160 m -6 1154 l -6 954 l 915 954 l 915 1154 l -6 1154 m 360 303 l 549 303 l 549 492 l 360 492 l 360 303 m 226 396 q 246 486 226 443 q 297 561 265 529 q 370 613 329 593 q 454 632 411 632 q 538 615 497 632 q 610 566 579 597 q 660 491 642 535 q 679 396 679 447 q 660 303 679 346 q 610 229 642 260 q 538 181 579 199 q 454 164 497 164 q 370 183 411 164 q 297 233 329 201 q 246 306 265 264 q 226 396 226 349 m 42 396 q 74 241 42 314 q 163 113 107 168 q 293 25 218 57 q 454 -7 368 -7 q 619 25 543 -7 q 749 113 694 57 q 835 241 804 168 q 867 396 867 314 q 837 551 867 478 q 752 681 807 625 q 622 769 697 736 q 454 801 546 801 q 286 769 363 801 q 156 681 210 736 q 72 551 101 625 q 42 396 42 478 z "},"1":{"ha":378,"x_min":-6,"x_max":386,"o":"m 331 794 l 47 794 l 47 606 l 142 606 l 142 0 l 331 0 l 331 794 m -6 -160 l -6 -360 l 385 -360 l 385 -160 l -6 -160 m -6 1154 l -6 954 l 386 954 l 386 1154 l -6 1154 z "},"2":{"ha":901,"x_min":-7,"x_max":910,"o":"m 910 954 l 910 1154 l -7 1154 l -7 954 l 910 954 m 910 -360 l 910 -160 l -7 -160 l -7 -360 l 910 -360 m 51 0 l 853 0 l 853 167 l 242 167 l 242 236 q 294 292 242 281 q 440 303 347 303 q 585 310 511 303 q 719 340 660 317 q 817 410 779 364 q 856 535 856 456 q 819 681 856 628 q 726 758 783 733 q 601 789 669 783 q 468 794 532 794 l 54 794 l 54 628 l 442 628 q 514 626 475 628 q 587 618 553 625 q 643 597 621 611 q 665 558 665 583 q 613 502 665 513 q 468 492 561 492 q 322 485 396 492 q 188 454 249 478 q 90 385 128 431 q 51 260 51 339 l 51 0 z "},"3":{"ha":783,"x_min":-6,"x_max":792,"o":"m 792 -160 l -6 -160 l -6 -360 l 792 -360 l 792 -160 m 792 1154 l -6 1154 l -6 954 l 792 954 l 792 1154 m 350 794 l 49 794 l 49 628 l 324 628 q 396 626 357 628 q 469 618 435 625 q 525 597 503 611 q 547 558 547 583 q 531 521 547 535 q 486 501 515 507 q 416 493 457 494 q 324 492 375 492 l 194 492 l 194 303 l 328 303 q 418 301 378 303 q 488 293 458 300 q 532 273 517 286 q 547 236 547 260 q 525 197 547 211 q 469 176 503 183 q 396 168 435 169 q 324 167 357 167 l 49 167 l 49 0 l 350 0 q 483 6 414 0 q 608 36 551 11 q 701 113 665 61 q 738 260 738 165 q 730 308 738 288 q 710 344 722 328 q 681 372 697 360 q 647 397 665 385 q 678 417 663 406 q 708 446 694 429 q 729 484 721 463 q 738 535 738 506 q 701 681 738 628 q 608 758 665 733 q 483 789 551 783 q 350 794 414 794 z "},"4":{"ha":896,"x_min":-6,"x_max":904,"o":"m 660 0 l 849 0 l 849 794 l 660 794 l 660 431 l 308 431 l 308 242 l 660 242 l 660 0 m 47 243 l 236 243 l 236 794 l 47 794 l 47 243 m -6 -160 l -6 -360 l 904 -360 l 904 -160 l -6 -160 m -6 1154 l -6 954 l 904 954 l 904 1154 l -6 1154 z "},"5":{"ha":899,"x_min":-6,"x_max":908,"o":"m 464 0 q 597 6 528 0 q 722 36 665 11 q 815 113 779 61 q 851 260 851 165 q 813 385 851 339 q 715 454 775 431 q 581 485 654 478 q 435 492 507 492 l 238 492 l 238 628 l 849 628 l 849 794 l 47 794 l 47 303 l 463 303 q 608 292 556 303 q 661 236 661 281 q 639 197 661 211 q 583 176 617 183 q 510 168 549 169 q 438 167 471 167 l 50 167 l 50 0 l 464 0 m -6 -160 l -6 -360 l 908 -360 l 908 -160 l -6 -160 m -6 1154 l -6 954 l 908 954 l 908 1154 l -6 1154 z "},"6":{"ha":897,"x_min":-6,"x_max":904,"o":"m 411 -6 q 283 23 346 -6 q 170 100 221 51 q 86 213 119 149 q 47 347 53 276 l 47 447 q 92 581 53 518 q 188 692 131 644 q 313 767 244 739 q 446 794 381 794 l 849 794 l 849 628 l 449 628 q 398 617 425 628 q 346 587 371 606 q 298 543 321 568 q 260 492 275 518 l 850 492 l 850 260 q 810 113 850 165 q 709 33 769 60 q 576 1 649 7 q 439 -6 503 -6 l 411 -6 m -6 1154 l 904 1154 l 904 954 l -6 954 l -6 1154 m -6 -160 l 903 -160 l 903 -360 l -6 -360 l -6 -160 m 660 303 l 264 303 q 301 251 279 275 q 347 208 322 226 q 399 178 372 189 q 449 167 425 167 l 471 167 q 537 169 503 167 q 598 179 571 172 q 642 200 625 186 q 660 236 660 214 l 660 303 z "},"7":{"ha":899,"x_min":-6,"x_max":908,"o":"m 86 0 l 276 0 l 276 236 q 319 292 276 281 q 456 303 363 303 q 597 310 526 303 q 724 340 668 317 q 816 410 781 364 q 851 535 851 456 l 851 794 l 50 794 l 50 628 l 661 628 l 661 558 q 619 502 661 513 q 483 492 576 492 q 340 485 411 492 q 213 454 269 478 q 122 385 157 431 q 86 260 86 339 l 86 0 m -6 -160 l -6 -360 l 908 -360 l 908 -160 l -6 -160 m -6 1154 l -6 954 l 908 954 l 908 1154 l -6 1154 z "},"8":{"ha":899,"x_min":-6,"x_max":907,"o":"m 472 167 l 425 167 q 358 168 392 167 q 299 176 325 169 q 256 197 272 183 q 239 236 239 211 q 294 292 239 281 q 442 303 349 303 q 532 301 492 303 q 601 293 572 300 q 646 273 631 286 q 661 236 661 260 q 644 201 661 214 q 599 180 626 188 q 538 169 572 172 q 472 167 504 167 m 239 558 q 256 597 239 583 q 301 618 274 611 q 363 626 329 625 q 431 628 397 628 l 472 628 q 538 625 504 628 q 599 615 572 622 q 644 594 626 607 q 661 558 661 581 q 614 504 661 515 q 486 492 567 493 l 414 492 q 285 504 331 493 q 239 558 239 515 m 907 954 l 907 1154 l -6 1154 l -6 954 l 907 954 m 907 -360 l 907 -160 l -6 -160 l -6 -360 l 907 -360 m 464 794 l 389 794 q 267 786 328 794 q 158 750 207 778 q 79 671 110 722 q 49 535 49 619 q 57 484 49 506 q 78 446 65 463 q 108 417 92 429 q 139 397 124 406 q 105 372 121 385 q 76 344 89 360 q 56 308 64 328 q 49 260 49 288 q 85 113 49 165 q 178 36 121 61 q 303 6 235 11 q 436 0 371 0 l 503 0 q 626 8 564 0 q 739 42 689 15 q 820 121 789 69 q 851 260 851 172 q 844 308 851 288 q 824 344 836 328 q 795 372 811 360 q 761 397 779 385 q 792 417 776 406 q 822 446 808 429 q 843 484 835 463 q 851 535 851 506 q 815 681 851 628 q 722 758 779 733 q 597 789 665 783 q 464 794 528 794 z "},"9":{"ha":865,"x_min":-6,"x_max":874,"o":"m 874 954 l 874 1154 l -6 1154 l -6 954 l 874 954 m 872 -360 l 872 -160 l -6 -160 l -6 -360 l 872 -360 m 819 794 l 453 794 q 317 788 388 794 q 187 756 246 782 q 89 678 128 729 q 50 535 50 626 q 72 417 50 465 q 129 337 93 369 q 213 285 165 304 q 315 258 261 267 q 422 246 368 249 q 526 243 476 243 l 558 243 l 558 429 l 469 429 q 303 451 364 429 q 243 529 243 472 q 266 578 243 560 q 323 608 289 597 q 397 624 357 619 q 469 628 436 628 l 631 628 l 631 0 l 819 0 l 819 794 z "}," ":{"ha":404,"x_min":-6,"x_max":410,"o":"m -6 -160 l -6 -360 l 410 -360 l 410 -160 l -6 -160 m -6 1154 l -6 954 l 410 954 l 410 1154 l -6 1154 z "},"!":{"ha":283,"x_min":-6,"x_max":290,"o":"m 47 242 l 236 242 l 236 794 l 47 794 l 47 242 m -6 -160 l -6 -360 l 290 -360 l 290 -160 l -6 -160 m -6 1154 l -6 954 l 290 954 l 290 1154 l -6 1154 m 47 0 l 236 0 l 236 189 l 47 189 l 47 0 z "},"\"":{"ha":524,"x_min":-6,"x_max":531,"o":"m 47 521 q 105 533 72 521 q 167 563 138 544 q 216 601 196 581 q 236 638 236 621 l 236 794 l 47 794 l 47 521 m -6 -160 l -6 -360 l 531 -360 l 531 -160 l -6 -160 m -6 1154 l -6 954 l 531 954 l 531 1154 l -6 1154 m 288 521 q 345 533 313 521 q 407 563 378 544 q 456 601 436 581 q 476 638 476 621 l 476 794 l 288 794 l 288 521 z "},"#":{"ha":926,"x_min":-6,"x_max":932,"o":"m 931 -360 l 931 -160 l -6 -160 l -6 -360 l 931 -360 m 932 954 l 932 1154 l -6 1154 l -6 954 l 932 954 m 181 450 l 181 344 l 46 344 l 46 156 l 181 156 l 181 0 l 369 0 l 369 450 l 549 450 l 549 344 l 442 344 l 442 156 l 549 156 l 549 0 l 738 0 l 738 156 l 878 156 l 878 344 l 738 344 l 738 450 l 878 450 l 878 639 l 738 639 l 738 794 l 549 794 l 549 639 l 369 639 l 369 794 l 181 794 l 181 639 l 46 639 l 46 450 l 181 450 z "},"$":{"ha":899,"x_min":-6,"x_max":908,"o":"m 354 624 l 354 493 q 267 509 296 496 q 238 558 238 522 q 272 604 238 590 q 354 624 307 618 m 543 169 l 543 301 q 631 283 601 297 q 661 236 661 269 q 626 190 661 204 q 543 169 590 175 m 908 -160 l -6 -160 l -6 -360 l 908 -360 l 908 -160 m 908 1154 l -6 1154 l -6 954 l 908 954 l 908 1154 m 354 0 l 354 -85 l 543 -85 l 543 1 q 656 15 600 4 q 755 53 711 25 q 825 131 799 82 q 851 260 851 181 q 826 366 851 324 q 757 434 800 408 q 658 472 714 460 q 543 488 603 483 l 543 628 l 849 628 l 849 794 l 543 794 l 543 879 l 354 879 l 354 793 q 242 780 297 790 q 143 741 186 769 q 74 663 100 713 q 47 535 47 614 q 73 428 47 471 q 141 360 99 386 q 239 322 183 335 q 354 306 294 310 l 354 167 l 50 167 l 50 0 l 354 0 z "},"%":{"ha":1099,"x_min":-7,"x_max":1107,"o":"m 1107 954 l 1107 1154 l -7 1154 l -7 954 l 1107 954 m 1107 -360 l 1107 -160 l -7 -160 l -7 -360 l 1107 -360 m 481 0 l 818 794 l 615 794 l 281 0 l 481 0 m 768 201 q 792 263 768 238 q 847 288 817 288 q 903 264 879 288 q 926 201 926 240 q 903 142 926 165 q 847 119 879 119 q 792 144 817 119 q 768 201 768 168 m 643 201 q 658 124 643 161 q 701 60 674 88 q 765 16 728 32 q 847 0 803 0 q 929 16 892 0 q 994 60 967 32 q 1036 124 1021 88 q 1051 201 1051 161 q 1037 280 1051 243 q 996 344 1022 317 q 931 388 969 372 q 847 404 893 404 q 764 388 801 404 q 699 344 726 372 q 658 280 672 317 q 643 201 643 243 m 172 592 q 197 653 172 628 q 251 678 221 678 q 307 654 283 678 q 331 592 331 631 q 307 533 331 556 q 251 510 283 510 q 197 534 221 510 q 172 592 172 558 m 47 592 q 63 515 47 551 q 105 450 78 478 q 169 406 132 422 q 251 390 207 390 q 333 406 296 390 q 398 450 371 422 q 440 515 425 478 q 456 592 456 551 q 441 670 456 633 q 400 735 426 707 q 335 778 374 763 q 251 794 297 794 q 168 778 206 794 q 103 735 131 763 q 62 670 76 707 q 47 592 47 633 z "},"&":{"ha":942,"x_min":-6,"x_max":949,"o":"m 464 167 l 454 167 q 383 168 421 167 q 313 176 346 169 q 260 197 281 183 q 239 236 239 211 q 290 292 239 281 q 433 303 340 303 q 522 301 483 303 q 588 293 561 300 q 630 273 615 286 q 644 236 644 260 q 628 201 644 214 q 587 180 613 188 q 528 169 561 172 q 464 167 496 167 m -6 -160 l -6 -360 l 949 -360 l 949 -160 l -6 -160 m -6 1154 l -6 954 l 949 954 l 949 1154 l -6 1154 m 890 303 l 890 492 l 406 492 q 281 503 322 492 q 239 558 239 515 q 260 597 239 583 q 313 618 281 611 q 383 626 346 625 q 454 628 421 628 l 800 628 l 800 794 l 381 794 q 260 786 319 794 q 153 750 200 778 q 78 671 107 722 q 49 535 49 619 q 57 484 49 506 q 78 446 65 463 q 108 417 92 429 q 139 397 124 406 q 105 372 121 385 q 76 344 89 360 q 56 308 64 328 q 49 260 49 288 q 83 113 49 165 q 174 36 118 61 q 296 6 229 11 q 428 0 363 0 l 486 0 q 610 8 547 0 q 722 42 672 15 q 803 121 772 69 q 835 260 835 172 q 833 277 835 267 q 828 303 831 288 l 890 303 z "},"'":{"ha":283,"x_min":-6,"x_max":290,"o":"m 47 521 q 105 533 72 521 q 167 563 138 544 q 216 601 196 581 q 236 638 236 621 l 236 794 l 47 794 l 47 521 m -6 -160 l -6 -360 l 289 -360 l 289 -160 l -6 -160 m -6 1154 l -6 954 l 290 954 l 290 1154 l -6 1154 z "},"(":{"ha":468,"x_min":47,"x_max":475,"o":"m 446 -360 l 475 -360 l 475 -160 l 449 -160 q 378 -139 415 -160 q 310 -86 342 -118 q 257 -15 278 -54 q 236 63 236 25 l 236 735 q 257 811 236 772 q 310 882 278 850 q 378 934 342 914 q 449 954 415 954 l 475 954 l 475 1154 l 446 1154 q 313 1126 381 1154 q 188 1051 244 1099 q 92 941 131 1004 q 47 807 53 878 l 47 4 q 92 -133 53 -67 q 188 -249 131 -199 q 313 -329 244 -299 q 446 -360 381 -360 z "},")":{"ha":468,"x_min":-7,"x_max":421,"o":"m -7 -360 l 22 -360 q 155 -329 86 -360 q 281 -249 224 -299 q 376 -133 338 -199 q 421 4 415 -67 l 421 807 q 376 941 415 878 q 281 1051 338 1004 q 155 1126 224 1099 q 22 1154 86 1154 l -7 1154 l -7 954 l 19 954 q 90 934 53 954 q 158 882 126 914 q 211 811 190 850 q 232 735 232 772 l 232 63 q 211 -15 232 25 q 158 -86 190 -54 q 90 -139 126 -118 q 19 -160 53 -160 l -7 -160 l -7 -360 z "},"*":{"ha":379,"x_min":-6,"x_max":388,"o":"m 183 678 l 219 628 l 299 681 l 254 729 l 332 743 l 293 819 l 235 792 l 238 856 l 126 856 l 138 792 l 75 822 l 47 743 l 117 729 l 71 683 l 153 628 l 183 678 m -6 -160 l -6 -360 l 388 -360 l 388 -160 l -6 -160 m -6 1154 l -6 954 l 388 954 l 388 1154 l -6 1154 z "},"+":{"ha":607,"x_min":-6,"x_max":615,"o":"m 614 -160 l -6 -160 l -6 -360 l 614 -360 l 614 -160 m 615 1154 l -6 1154 l -6 954 l 615 954 l 615 1154 m 210 142 l 399 142 l 399 303 l 560 303 l 560 492 l 399 492 l 399 656 l 210 656 l 210 492 l 46 492 l 46 303 l 210 303 l 210 142 z "},",":{"ha":283,"x_min":-6,"x_max":289,"o":"m 47 -85 q 105 -73 72 -85 q 167 -43 138 -61 q 216 -5 196 -25 q 236 32 236 15 l 236 189 l 47 189 l 47 -85 m -6 -160 l -6 -360 l 289 -360 l 289 -160 l -6 -160 m -6 1154 l -6 954 l 289 954 l 289 1154 l -6 1154 z "},"-":{"ha":460,"x_min":-6,"x_max":465,"o":"m 413 492 l 46 492 l 46 303 l 413 303 l 413 492 m -6 -160 l -6 -360 l 465 -360 l 465 -160 l -6 -160 m -6 1154 l -6 954 l 465 954 l 465 1154 l -6 1154 z "},".":{"ha":283,"x_min":-6,"x_max":289,"o":"m 47 0 l 236 0 l 236 189 l 47 189 l 47 0 m -6 -160 l -6 -360 l 289 -360 l 289 -160 l -6 -160 m -6 1154 l -6 954 l 289 954 l 289 1154 l -6 1154 z "},"/":{"ha":632,"x_min":-6,"x_max":638,"o":"m 638 954 l 638 1154 l -6 1154 l -6 954 l 638 954 m 638 -360 l 638 -160 l -6 -160 l -6 -360 l 638 -360 m 247 0 l 585 794 l 382 794 l 47 0 l 247 0 z "},":":{"ha":283,"x_min":-6,"x_max":289,"o":"m 47 0 l 236 0 l 236 189 l 47 189 l 47 0 m -6 -160 l -6 -360 l 289 -360 l 289 -160 l -6 -160 m -6 1154 l -6 954 l 289 954 l 289 1154 l -6 1154 m 47 383 l 236 383 l 236 572 l 47 572 l 47 383 z "},";":{"ha":283,"x_min":-6,"x_max":289,"o":"m -6 -160 l -6 -360 l 289 -360 l 289 -160 l -6 -160 m -6 1154 l -6 954 l 289 954 l 289 1154 l -6 1154 m 47 383 l 236 383 l 236 572 l 47 572 l 47 383 m 47 -85 q 105 -73 72 -85 q 167 -43 138 -61 q 216 -5 196 -25 q 236 32 236 15 l 236 189 l 47 189 l 47 -85 z "},"<":{"ha":606,"x_min":32,"x_max":611,"o":"m 32 396 l 399 -360 l 611 -360 l 611 -160 l 511 -160 l 242 397 l 511 954 l 611 954 l 611 1154 l 399 1154 l 32 396 z "},"=":{"ha":493,"x_min":-6,"x_max":501,"o":"m 447 358 l 46 358 l 46 169 l 447 169 l 447 358 m -6 -160 l -6 -360 l 500 -360 l 500 -160 l -6 -160 m -6 1154 l -6 954 l 501 954 l 501 1154 l -6 1154 m 447 625 l 46 625 l 46 436 l 447 436 l 447 625 z "},">":{"ha":606,"x_min":-6,"x_max":574,"o":"m 574 396 l 207 -360 l -6 -360 l -6 -160 l 94 -160 l 364 397 l 94 954 l -6 954 l -6 1154 l 207 1154 l 574 396 z "},"?":{"ha":896,"x_min":-7,"x_max":904,"o":"m 904 954 l 904 1154 l -7 1154 l -7 954 l 904 954 m 904 -360 l 904 -160 l -7 -160 l -7 -360 l 904 -360 m 86 242 l 276 242 l 276 251 q 322 291 276 279 q 461 303 368 303 q 602 310 532 303 q 728 340 672 317 q 818 410 783 364 q 853 535 853 456 q 817 681 853 628 q 724 758 781 733 q 598 789 667 783 q 465 794 529 794 l 51 794 l 51 628 l 439 628 q 511 626 472 628 q 584 618 550 625 q 640 597 618 611 q 663 558 663 583 q 622 502 663 513 q 489 492 582 492 q 345 485 417 492 q 216 454 274 478 q 122 385 158 431 q 86 260 86 339 l 86 242 m 86 0 l 275 0 l 275 189 l 86 189 l 86 0 z "},"@":{"ha":1468,"x_min":-6,"x_max":1476,"o":"m 508 396 q 528 486 508 443 q 578 561 547 529 q 650 613 610 593 q 733 632 690 632 q 817 615 776 632 q 888 566 857 597 q 937 491 918 535 q 956 396 956 447 q 937 303 956 346 q 888 229 918 260 q 817 181 857 199 q 733 164 776 164 q 650 183 690 164 q 578 233 610 201 q 528 306 547 264 q 508 396 508 349 m 1476 1154 l -6 1154 l -6 954 l 100 954 q 64 883 78 919 q 47 807 50 846 l 47 4 q 67 -80 50 -39 q 108 -160 83 -121 l -6 -160 l -6 -360 l 1476 -360 l 1476 -160 l 449 -160 q 378 -139 415 -160 q 310 -86 342 -118 q 257 -15 278 -54 q 236 63 236 25 l 236 735 q 257 811 236 772 q 310 882 278 850 q 378 934 342 914 q 449 954 415 954 l 1026 954 q 1094 931 1058 951 q 1161 878 1131 910 q 1212 809 1192 847 q 1232 735 1232 771 l 1232 415 q 1222 357 1232 388 q 1194 299 1211 326 q 1153 250 1176 271 q 1103 221 1129 229 q 1142 396 1142 297 q 1113 551 1142 478 q 1029 681 1083 625 q 900 769 975 736 q 733 801 825 801 q 566 769 642 801 q 437 681 490 736 q 354 551 383 625 q 325 396 325 478 q 355 241 325 314 q 439 113 385 168 q 568 25 493 57 q 733 -7 643 -7 l 1022 -7 q 1155 24 1086 -7 q 1281 104 1224 54 q 1376 220 1338 154 q 1421 357 1415 286 l 1421 807 q 1404 883 1418 846 q 1368 954 1390 919 l 1476 954 l 1476 1154 m 638 303 l 826 303 l 826 492 l 638 492 l 638 303 z "},"A":{"ha":896,"x_min":-6,"x_max":901,"o":"m 849 794 l 446 794 q 313 776 381 794 q 188 723 244 758 q 92 634 131 688 q 47 510 53 581 l 47 0 l 236 0 l 236 242 l 588 242 l 588 431 l 236 431 l 236 471 q 260 538 239 508 q 311 587 281 567 q 378 617 342 607 q 449 628 415 628 l 660 628 l 660 0 l 849 0 l 849 794 m -6 -160 l -6 -360 l 901 -360 l 901 -160 l -6 -160 m -6 1154 l -6 954 l 901 954 l 901 1154 l -6 1154 z "},"B":{"ha":899,"x_min":-6,"x_max":907,"o":"m 236 167 l 236 628 l 438 628 q 510 626 471 628 q 583 618 549 625 q 639 597 617 611 q 661 558 661 583 q 645 521 661 535 q 600 501 629 507 q 530 493 571 494 q 438 492 489 492 l 308 492 l 308 303 l 442 303 q 532 301 492 303 q 601 293 572 300 q 646 273 631 286 q 661 236 661 260 q 639 197 661 211 q 583 176 617 183 q 510 168 549 169 q 438 167 471 167 l 236 167 m 464 794 l 47 794 l 47 0 l 464 0 q 597 6 528 0 q 722 36 665 11 q 815 113 779 61 q 851 260 851 165 q 844 308 851 288 q 824 344 836 328 q 795 372 811 360 q 761 397 779 385 q 792 417 776 406 q 822 446 808 429 q 843 484 835 463 q 851 535 851 506 q 815 681 851 628 q 722 758 779 733 q 597 789 665 783 q 464 794 528 794 m -6 -160 l -6 -360 l 907 -360 l 907 -160 l -6 -160 m -6 1154 l -6 954 l 907 954 l 907 1154 l -6 1154 z "},"C":{"ha":786,"x_min":-6,"x_max":794,"o":"m 446 0 l 739 0 l 739 167 l 449 167 q 378 188 415 167 q 310 240 342 208 q 258 312 279 272 q 236 389 238 351 l 236 408 q 257 485 236 446 q 310 556 278 524 q 378 608 342 588 q 449 628 415 628 l 739 628 l 739 794 l 446 794 q 313 767 381 794 q 188 692 244 739 q 92 581 131 644 q 47 447 53 518 l 47 347 q 92 213 53 276 q 188 103 131 150 q 313 28 244 56 q 446 0 381 0 m -6 -160 l -6 -360 l 793 -360 l 793 -160 l -6 -160 m -6 1154 l -6 954 l 794 954 l 794 1154 l -6 1154 z "},"D":{"ha":896,"x_min":-6,"x_max":901,"o":"m 47 0 l 236 0 l 236 628 l 447 628 q 517 608 481 628 q 585 556 554 588 q 636 485 615 524 q 660 408 657 446 l 660 386 q 636 310 657 349 q 585 239 615 271 q 517 187 554 207 q 447 167 481 167 l 308 167 l 308 0 l 450 0 q 583 28 514 0 q 708 103 651 56 q 804 213 765 150 q 849 347 843 276 l 849 447 q 804 581 843 518 q 708 692 765 644 q 583 767 651 739 q 450 794 514 794 l 47 794 l 47 0 m -6 -160 l -6 -360 l 901 -360 l 901 -160 l -6 -160 m -6 1154 l -6 954 l 901 954 l 901 1154 l -6 1154 z "},"E":{"ha":803,"x_min":-6,"x_max":810,"o":"m 756 0 l 756 167 l 449 167 q 378 187 415 167 q 310 239 342 207 q 257 310 278 271 q 236 386 236 349 l 236 406 q 258 483 238 443 q 310 554 279 522 q 378 607 342 586 q 449 628 415 628 l 756 628 l 756 794 l 446 794 q 313 767 381 794 q 188 692 244 739 q 92 581 131 644 q 47 447 53 518 l 47 347 q 92 213 53 276 q 188 103 131 150 q 313 28 244 56 q 446 0 381 0 l 756 0 m 711 492 l 340 492 l 340 303 l 711 303 l 711 492 m -6 -160 l -6 -360 l 810 -360 l 810 -160 l -6 -160 m -6 1154 l -6 954 l 810 954 l 810 1154 l -6 1154 z "},"F":{"ha":786,"x_min":-6,"x_max":793,"o":"m 236 0 l 236 408 q 257 488 236 449 q 310 559 278 528 q 378 609 342 590 q 449 628 415 628 l 739 628 l 739 794 l 446 794 q 313 767 381 794 q 188 692 244 739 q 92 581 131 644 q 47 447 53 518 l 47 0 l 236 0 m 694 492 l 340 492 l 340 303 l 694 303 l 694 492 m -6 -160 l -6 -360 l 790 -360 l 790 -160 l -6 -160 m -6 1154 l -6 954 l 793 954 l 793 1154 l -6 1154 z "},"G":{"ha":897,"x_min":-6,"x_max":904,"o":"m 411 -6 l 439 -6 q 576 1 503 -6 q 709 33 649 7 q 810 113 769 60 q 850 260 850 165 l 850 492 l 450 492 l 450 303 l 660 303 l 660 236 q 642 200 660 214 q 598 179 625 186 q 537 169 571 172 q 471 167 503 167 l 449 167 q 378 188 415 167 q 310 240 342 208 q 258 312 279 272 q 236 389 238 351 l 236 408 q 257 485 236 446 q 310 556 278 524 q 378 608 342 588 q 449 628 415 628 l 849 628 l 849 794 l 446 794 q 313 767 381 794 q 188 692 244 739 q 92 581 131 644 q 47 447 53 518 l 47 347 q 86 213 53 276 q 170 100 119 149 q 283 23 221 51 q 411 -6 346 -6 m -6 -160 l -6 -360 l 903 -360 l 903 -160 l -6 -160 m -6 1154 l -6 954 l 904 954 l 904 1154 l -6 1154 z "},"H":{"ha":896,"x_min":-6,"x_max":904,"o":"m 660 0 l 849 0 l 849 794 l 660 794 l 660 431 l 308 431 l 308 242 l 660 242 l 660 0 m 47 0 l 236 0 l 236 794 l 47 794 l 47 0 m -6 -160 l -6 -360 l 904 -360 l 904 -160 l -6 -160 m -6 1154 l -6 954 l 904 954 l 904 1154 l -6 1154 z "},"I":{"ha":283,"x_min":-6,"x_max":290,"o":"m 47 0 l 236 0 l 236 794 l 47 794 l 47 0 m -6 -160 l -6 -360 l 290 -360 l 290 -160 l -6 -160 m -6 1154 l -6 954 l 290 954 l 290 1154 l -6 1154 z "},"J":{"ha":896,"x_min":-6,"x_max":901,"o":"m -6 954 l -6 1154 l 901 1154 l 901 954 l -6 954 m -6 -360 l -6 -160 l 901 -160 l 901 -360 l -6 -360 m 450 -6 q 309 13 379 -6 q 183 68 239 32 q 90 157 126 104 q 47 278 53 210 l 47 397 l 236 397 l 236 297 q 315 196 257 231 q 447 161 372 161 q 517 172 481 161 q 585 202 554 182 q 636 251 615 222 q 660 318 657 281 l 660 794 l 849 794 l 849 279 q 804 155 843 208 q 708 66 765 101 q 583 13 651 31 q 450 -6 514 -6 z "},"K":{"ha":899,"x_min":-6,"x_max":907,"o":"m 47 0 l 236 0 l 236 794 l 47 794 l 47 0 m 665 0 l 851 0 l 851 128 q 822 238 851 181 q 744 332 793 296 q 822 408 793 364 q 851 535 851 453 l 851 794 l 661 794 l 661 529 q 601 451 661 472 q 436 429 542 429 l 313 429 l 313 243 l 533 243 q 582 227 560 243 q 622 189 604 211 q 650 142 639 167 q 665 100 661 117 l 665 0 m -6 -160 l -6 -360 l 907 -360 l 907 -160 l -6 -160 m -6 1154 l -6 954 l 907 954 l 907 1154 l -6 1154 z "},"L":{"ha":693,"x_min":-6,"x_max":700,"o":"m -6 -160 l -6 -360 l 700 -360 l 700 -160 l -6 -160 m -6 1154 l -6 954 l 700 954 l 700 1154 l -6 1154 m 47 794 l 47 0 l 646 0 l 646 167 l 236 167 l 236 794 l 47 794 z "},"M":{"ha":1231,"x_min":-6,"x_max":1236,"o":"m 376 800 q 254 782 311 800 q 153 728 197 764 q 81 640 108 693 q 47 515 53 586 l 47 0 l 236 0 l 236 476 q 276 592 240 551 q 379 633 313 633 q 441 622 415 633 q 483 589 467 610 q 509 540 500 568 q 521 479 518 511 l 521 0 l 710 0 l 710 476 q 750 592 714 551 q 853 633 786 633 q 961 599 928 633 q 994 497 994 564 l 994 0 l 1183 0 l 1183 517 q 1151 638 1178 585 q 1082 727 1125 692 q 980 781 1039 763 q 850 800 921 800 q 722 780 782 800 q 617 719 661 760 q 376 800 528 800 m -6 -160 l -6 -360 l 1236 -360 l 1236 -160 l -6 -160 m -6 1154 l -6 954 l 1236 954 l 1236 1154 l -6 1154 z "},"N":{"ha":896,"x_min":-6,"x_max":904,"o":"m 450 800 l 47 800 l 47 0 l 236 0 l 236 633 l 447 633 q 517 623 481 633 q 585 592 554 613 q 636 543 615 572 q 660 476 657 514 l 660 0 l 849 0 l 849 515 q 804 640 843 586 q 708 728 765 693 q 583 782 651 764 q 450 800 514 800 m -6 -160 l -6 -360 l 904 -360 l 904 -160 l -6 -160 m -6 1154 l -6 954 l 904 954 l 904 1154 l -6 1154 z "},"O":{"ha":908,"x_min":-6,"x_max":915,"o":"m -6 -160 l -6 -360 l 914 -360 l 914 -160 l -6 -160 m -6 1154 l -6 954 l 915 954 l 915 1154 l -6 1154 m 226 396 q 246 486 226 443 q 297 561 265 529 q 370 613 329 593 q 454 632 411 632 q 538 615 497 632 q 610 566 579 597 q 660 491 642 535 q 679 396 679 447 q 660 303 679 346 q 610 229 642 260 q 538 181 579 199 q 454 164 497 164 q 370 183 411 164 q 297 233 329 201 q 246 306 265 264 q 226 396 226 349 m 42 396 q 74 241 42 314 q 163 113 107 168 q 293 25 218 57 q 454 -7 368 -7 q 619 25 543 -7 q 749 113 694 57 q 835 241 804 168 q 867 396 867 314 q 837 551 867 478 q 752 681 807 625 q 622 769 697 736 q 454 801 546 801 q 286 769 363 801 q 156 681 210 736 q 72 551 101 625 q 42 396 42 478 z "},"P":{"ha":899,"x_min":-6,"x_max":907,"o":"m 449 794 l 47 794 l 47 0 l 236 0 l 236 628 l 432 628 q 505 624 465 628 q 578 608 544 619 q 635 578 613 597 q 658 529 658 560 q 598 451 658 472 q 432 429 538 429 l 308 429 l 308 243 l 379 243 q 483 246 429 243 q 590 258 538 249 q 690 285 642 267 q 773 337 738 304 q 830 418 808 369 q 851 535 851 467 q 813 678 851 626 q 715 756 774 729 q 584 788 656 782 q 449 794 513 794 m -6 -160 l -6 -360 l 906 -360 l 906 -160 l -6 -160 m -6 1154 l -6 954 l 907 954 l 907 1154 l -6 1154 z "},"Q":{"ha":908,"x_min":-6,"x_max":915,"o":"m 226 396 q 246 486 226 443 q 297 561 265 529 q 370 613 329 593 q 454 632 411 632 q 538 615 497 632 q 610 566 579 597 q 660 491 642 535 q 679 396 679 447 q 641 269 679 324 q 549 186 603 214 l 549 338 l 360 338 l 360 188 q 265 272 304 215 q 226 396 226 328 m 43 396 q 66 260 43 325 q 131 144 89 196 q 231 55 172 92 q 360 3 289 18 l 360 -104 l 549 -104 l 549 3 q 676 55 618 18 q 776 144 735 92 q 842 262 818 197 q 865 396 865 326 q 835 551 865 478 q 751 681 806 625 q 622 769 697 736 q 454 801 546 801 q 287 769 363 801 q 157 681 211 736 q 73 551 103 625 q 43 396 43 478 m -6 -160 l -6 -360 l 914 -360 l 914 -160 l -6 -160 m -6 1154 l -6 954 l 915 954 l 915 1154 l -6 1154 z "},"R":{"ha":897,"x_min":-6,"x_max":904,"o":"m -6 -160 l -6 -360 l 904 -360 l 904 -160 l -6 -160 m -6 1154 l -6 954 l 904 954 l 904 1154 l -6 1154 m 661 0 l 850 0 l 850 128 q 821 238 850 181 q 743 332 792 296 q 821 408 792 364 q 850 535 850 453 q 812 678 850 626 q 714 756 774 729 q 583 788 654 782 q 449 794 513 794 l 47 794 l 47 0 l 236 0 l 236 628 l 432 628 q 505 624 465 628 q 578 608 544 619 q 634 578 611 597 q 657 529 657 560 q 597 451 657 472 q 432 429 538 429 l 308 429 l 308 243 l 529 243 q 578 227 556 243 q 617 189 600 211 q 646 142 635 167 q 661 100 657 117 l 661 0 z "},"S":{"ha":886,"x_min":-6,"x_max":892,"o":"m 453 0 q 584 6 517 0 q 706 36 651 11 q 794 113 760 61 q 829 260 829 165 q 793 385 829 339 q 699 454 757 431 q 568 485 640 478 q 424 492 496 492 q 284 502 331 492 q 238 558 238 513 q 258 597 238 583 q 310 618 279 611 q 379 626 342 625 q 450 628 417 628 l 825 628 l 825 794 l 424 794 q 292 789 358 794 q 171 758 225 783 q 82 681 117 733 q 47 535 47 628 q 83 410 47 456 q 178 340 119 364 q 308 310 236 317 q 451 303 381 303 q 592 292 544 303 q 639 236 639 281 q 618 197 639 211 q 566 176 597 183 q 497 168 535 169 q 426 167 460 167 l 51 167 l 51 0 l 453 0 m -6 -160 l -6 -360 l 892 -360 l 892 -160 l -6 -160 m -6 1154 l -6 954 l 892 954 l 892 1154 l -6 1154 z "},"T":{"ha":835,"x_min":-6,"x_max":843,"o":"m -6 -160 l -6 -360 l 842 -360 l 842 -160 l -6 -160 m -6 1154 l -6 954 l 843 954 l 843 1154 l -6 1154 m 788 794 l 47 794 l 47 628 l 321 628 l 321 0 l 511 0 l 511 628 l 788 628 l 788 794 z "},"U":{"ha":896,"x_min":-6,"x_max":901,"o":"m 450 -6 q 583 13 514 -6 q 708 66 651 31 q 804 155 765 101 q 849 279 843 208 l 849 794 l 660 794 l 660 318 q 636 251 657 281 q 585 202 615 222 q 517 172 554 182 q 447 161 481 161 q 315 196 372 161 q 236 297 257 231 l 236 794 l 47 794 l 47 278 q 90 157 53 210 q 183 68 126 104 q 309 13 239 32 q 450 -6 379 -6 m -6 -160 l -6 -360 l 901 -360 l 901 -160 l -6 -160 m -6 1154 l -6 954 l 901 954 l 901 1154 l -6 1154 z "},"V":{"ha":896,"x_min":-6,"x_max":901,"o":"m 47 794 l 47 353 q 213 163 118 251 q 397 0 307 75 l 497 0 q 689 169 601 75 q 849 353 776 264 l 849 794 l 660 794 l 660 411 q 554 286 607 340 q 449 189 501 232 q 236 411 318 306 l 236 794 l 47 794 m -6 -160 l -6 -360 l 901 -360 l 901 -160 l -6 -160 m -6 1154 l -6 954 l 901 954 l 901 1154 l -6 1154 z "},"W":{"ha":1231,"x_min":-6,"x_max":1236,"o":"m 854 -6 q 976 13 918 -6 q 1078 66 1033 31 q 1150 155 1122 101 q 1183 279 1178 208 l 1183 794 l 994 794 l 994 318 q 954 202 990 243 q 851 161 918 161 q 790 173 815 161 q 747 206 764 185 q 722 255 731 226 q 710 315 713 283 l 710 794 l 521 794 l 521 318 q 481 202 517 243 q 378 161 444 161 q 269 196 303 161 q 236 297 236 231 l 236 794 l 47 794 l 47 278 q 79 156 53 208 q 149 67 106 103 q 251 13 192 32 q 381 -6 310 -6 q 509 15 449 -6 q 614 75 569 35 q 854 -6 703 -6 m -6 -160 l -6 -360 l 1236 -360 l 1236 -160 l -6 -160 m -6 1154 l -6 954 l 1236 954 l 1236 1154 l -6 1154 z "},"X":{"ha":899,"x_min":-6,"x_max":907,"o":"m 665 100 l 665 0 l 851 0 l 851 128 q 822 238 851 181 q 744 332 793 296 q 822 408 793 364 q 851 535 851 453 l 851 794 l 661 794 l 661 529 q 606 452 661 474 q 454 431 550 431 q 295 451 353 431 q 238 529 238 472 l 238 794 l 47 794 l 47 535 q 76 408 47 453 q 154 332 106 364 q 76 238 106 296 q 47 128 47 181 l 47 0 l 233 0 l 233 100 q 249 140 238 117 q 276 186 260 164 q 315 224 293 208 q 363 243 338 240 l 531 243 q 580 227 557 243 q 620 189 603 211 q 649 142 638 167 q 665 100 661 117 m -6 -160 l -6 -360 l 907 -360 l 907 -160 l -6 -160 m -6 1154 l -6 954 l 907 954 l 907 1154 l -6 1154 z "},"Y":{"ha":896,"x_min":-6,"x_max":903,"o":"m 353 0 l 542 0 l 542 239 q 650 271 597 249 q 746 328 703 293 q 817 410 789 363 q 849 515 844 457 l 849 794 l 660 794 l 660 554 q 636 488 657 517 q 585 438 615 458 q 517 408 554 418 q 447 397 481 397 q 315 432 372 397 q 236 533 257 467 l 236 794 l 47 794 l 47 514 q 78 411 51 457 q 146 331 104 365 q 241 273 188 296 q 353 239 294 250 l 353 0 m -4 -160 l -4 -360 l 901 -360 l 901 -160 l -4 -160 m -6 1154 l -6 954 l 903 954 l 903 1154 l -6 1154 z "},"Z":{"ha":886,"x_min":-6,"x_max":892,"o":"m 49 0 l 833 0 l 833 167 l 239 167 l 239 236 q 288 292 239 281 q 429 303 336 303 q 573 310 500 303 q 704 340 646 317 q 799 410 763 364 q 836 535 836 456 l 836 794 l 51 794 l 51 628 l 646 628 l 646 558 q 598 502 646 513 q 457 492 550 492 q 312 485 385 492 q 181 454 239 478 q 85 385 122 431 q 49 260 49 339 l 49 0 m -6 -160 l -6 -360 l 890 -360 l 890 -160 l -6 -160 m -6 1154 l -6 954 l 892 954 l 892 1154 l -6 1154 z "},"[":{"ha":468,"x_min":47,"x_max":475,"o":"m 47 -360 l 475 -360 l 475 -160 l 236 -160 l 236 954 l 475 954 l 475 1154 l 47 1154 l 47 -360 z "},"\\":{"ha":632,"x_min":-6,"x_max":638,"o":"m 47 794 l 385 0 l 585 0 l 250 794 l 47 794 m -6 -160 l -6 -360 l 638 -360 l 638 -160 l -6 -160 m -6 1154 l -6 954 l 638 954 l 638 1154 l -6 1154 z "},"]":{"ha":469,"x_min":-6,"x_max":422,"o":"m 422 -360 l -6 -360 l -6 -160 l 233 -160 l 233 954 l -6 954 l -6 1154 l 422 1154 l 422 -360 z "},"^":{"ha":896,"x_min":-6,"x_max":901,"o":"m 450 794 l 47 794 l 47 0 l 236 0 l 236 628 l 447 628 q 517 617 481 628 q 585 587 554 607 q 636 538 615 567 q 660 471 657 508 l 660 431 l 308 431 l 308 242 l 660 242 l 660 0 l 849 0 l 849 510 q 804 634 843 581 q 708 723 765 688 q 583 776 651 758 q 450 794 514 794 m -6 -160 l -6 -360 l 901 -360 l 901 -160 l -6 -160 m -6 1154 l -6 954 l 901 954 l 901 1154 l -6 1154 z "},"_":{"ha":407,"x_min":0,"x_max":0,"o":""},"`":{"ha":517,"x_min":-6,"x_max":522,"o":"m 522 -160 l -6 -160 l -6 -360 l 522 -360 l 522 -160 m 522 954 l 522 1154 l -6 1154 l -6 954 l 214 954 l 99 1103 l 294 1103 l 385 954 l 522 954 z "},"a":{"ha":896,"x_min":-6,"x_max":903,"o":"m 450 800 q 309 781 379 800 q 183 726 239 763 q 90 638 126 690 q 47 517 53 585 l 47 0 l 236 0 l 236 497 q 315 599 257 564 q 447 633 372 633 q 517 623 481 633 q 585 592 554 613 q 636 543 615 572 q 660 476 657 514 l 660 431 l 308 431 l 308 242 l 660 242 l 660 0 l 849 0 l 849 515 q 804 640 843 586 q 708 728 765 693 q 583 782 651 764 q 450 800 514 800 m -6 -160 l -6 -360 l 903 -360 l 903 -160 l -6 -160 m -6 1154 l -6 954 l 903 954 l 903 1154 l -6 1154 z "},"b":{"ha":899,"x_min":-6,"x_max":907,"o":"m 236 167 l 236 628 l 438 628 q 510 626 471 628 q 583 618 549 625 q 639 597 617 611 q 661 558 661 583 q 645 521 661 535 q 600 501 629 507 q 530 493 571 494 q 438 492 489 492 l 308 492 l 308 303 l 442 303 q 532 301 492 303 q 601 293 572 300 q 646 273 631 286 q 661 236 661 260 q 639 197 661 211 q 583 176 617 183 q 510 168 549 169 q 438 167 471 167 l 236 167 m 464 794 l 47 794 l 47 0 l 464 0 q 597 6 528 0 q 722 36 665 11 q 815 113 779 61 q 851 260 851 165 q 844 308 851 288 q 824 344 836 328 q 795 372 811 360 q 761 397 779 385 q 792 417 776 406 q 822 446 808 429 q 843 484 835 463 q 851 535 851 506 q 815 681 851 628 q 722 758 779 733 q 597 789 665 783 q 464 794 528 794 m -6 -160 l -6 -360 l 907 -360 l 907 -160 l -6 -160 m -6 1154 l -6 954 l 907 954 l 907 1154 l -6 1154 z "},"c":{"ha":786,"x_min":-6,"x_max":794,"o":"m 446 0 l 739 0 l 739 167 l 449 167 q 378 188 415 167 q 310 240 342 208 q 258 312 279 272 q 236 389 238 351 l 236 408 q 257 485 236 446 q 310 556 278 524 q 378 608 342 588 q 449 628 415 628 l 739 628 l 739 794 l 446 794 q 313 767 381 794 q 188 692 244 739 q 92 581 131 644 q 47 447 53 518 l 47 347 q 92 213 53 276 q 188 103 131 150 q 313 28 244 56 q 446 0 381 0 m -6 -160 l -6 -360 l 793 -360 l 793 -160 l -6 -160 m -6 1154 l -6 954 l 794 954 l 794 1154 l -6 1154 z "},"d":{"ha":896,"x_min":-6,"x_max":901,"o":"m 47 0 l 236 0 l 236 628 l 447 628 q 517 608 481 628 q 585 556 554 588 q 636 485 615 524 q 660 408 657 446 l 660 386 q 636 310 657 349 q 585 239 615 271 q 517 187 554 207 q 447 167 481 167 l 308 167 l 308 0 l 450 0 q 583 28 514 0 q 708 103 651 56 q 804 213 765 150 q 849 347 843 276 l 849 447 q 804 581 843 518 q 708 692 765 644 q 583 767 651 739 q 450 794 514 794 l 47 794 l 47 0 m -6 -160 l -6 -360 l 901 -360 l 901 -160 l -6 -160 m -6 1154 l -6 954 l 901 954 l 901 1154 l -6 1154 z "},"e":{"ha":803,"x_min":-6,"x_max":810,"o":"m 756 0 l 756 167 l 449 167 q 378 187 415 167 q 310 239 342 207 q 257 310 278 271 q 236 386 236 349 l 236 406 q 258 483 238 443 q 310 554 279 522 q 378 607 342 586 q 449 628 415 628 l 756 628 l 756 794 l 446 794 q 313 767 381 794 q 188 692 244 739 q 92 581 131 644 q 47 447 53 518 l 47 347 q 92 213 53 276 q 188 103 131 150 q 313 28 244 56 q 446 0 381 0 l 756 0 m 711 492 l 340 492 l 340 303 l 711 303 l 711 492 m -6 -160 l -6 -360 l 810 -360 l 810 -160 l -6 -160 m -6 1154 l -6 954 l 810 954 l 810 1154 l -6 1154 z "},"f":{"ha":786,"x_min":-6,"x_max":793,"o":"m 236 0 l 236 408 q 257 488 236 449 q 310 559 278 528 q 378 609 342 590 q 449 628 415 628 l 736 628 l 736 794 l 446 794 q 313 767 381 794 q 188 692 244 739 q 92 581 131 644 q 47 447 53 518 l 47 0 l 236 0 m 692 492 l 340 492 l 340 303 l 692 303 l 692 492 m -6 -160 l -6 -360 l 793 -360 l 793 -160 l -6 -160 m -6 1154 l -6 954 l 793 954 l 793 1154 l -6 1154 z "},"g":{"ha":897,"x_min":-6,"x_max":904,"o":"m 411 -6 l 439 -6 q 576 1 503 -6 q 709 33 649 7 q 810 113 769 60 q 850 260 850 165 l 850 492 l 450 492 l 450 303 l 660 303 l 660 236 q 642 200 660 214 q 598 179 625 186 q 537 169 571 172 q 471 167 503 167 l 449 167 q 378 188 415 167 q 310 240 342 208 q 258 312 279 272 q 236 389 238 351 l 236 408 q 257 485 236 446 q 310 556 278 524 q 378 608 342 588 q 449 628 415 628 l 849 628 l 849 794 l 446 794 q 313 767 381 794 q 188 692 244 739 q 92 581 131 644 q 47 447 53 518 l 47 347 q 86 213 53 276 q 170 100 119 149 q 283 23 221 51 q 411 -6 346 -6 m -6 -160 l -6 -360 l 903 -360 l 903 -160 l -6 -160 m -6 1154 l -6 954 l 904 954 l 904 1154 l -6 1154 z "},"h":{"ha":896,"x_min":-6,"x_max":904,"o":"m 660 0 l 849 0 l 849 794 l 660 794 l 660 431 l 308 431 l 308 242 l 660 242 l 660 0 m 47 0 l 236 0 l 236 794 l 47 794 l 47 0 m -6 -160 l -6 -360 l 904 -360 l 904 -160 l -6 -160 m -6 1154 l -6 954 l 904 954 l 904 1154 l -6 1154 z "},"i":{"ha":283,"x_min":-6,"x_max":290,"o":"m 47 0 l 236 0 l 236 794 l 47 794 l 47 0 m -6 -160 l -6 -360 l 290 -360 l 290 -160 l -6 -160 m -6 1154 l -6 954 l 290 954 l 290 1154 l -6 1154 z "},"j":{"ha":896,"x_min":-6,"x_max":901,"o":"m -6 954 l -6 1154 l 901 1154 l 901 954 l -6 954 m -6 -360 l -6 -160 l 901 -160 l 901 -360 l -6 -360 m 450 -6 q 309 13 379 -6 q 183 68 239 32 q 90 157 126 104 q 47 278 53 210 l 47 397 l 236 397 l 236 297 q 315 196 257 231 q 447 161 372 161 q 517 172 481 161 q 585 202 554 182 q 636 251 615 222 q 660 318 657 281 l 660 794 l 849 794 l 849 279 q 804 155 843 208 q 708 66 765 101 q 583 13 651 31 q 450 -6 514 -6 z "},"k":{"ha":899,"x_min":-6,"x_max":907,"o":"m 47 0 l 236 0 l 236 794 l 47 794 l 47 0 m 665 0 l 851 0 l 851 128 q 822 238 851 181 q 744 332 793 296 q 822 408 793 364 q 851 535 851 453 l 851 794 l 661 794 l 661 529 q 601 451 661 472 q 436 429 542 429 l 313 429 l 313 243 l 533 243 q 582 227 560 243 q 622 189 604 211 q 650 142 639 167 q 665 100 661 117 l 665 0 m -6 -160 l -6 -360 l 907 -360 l 907 -160 l -6 -160 m -6 1154 l -6 954 l 907 954 l 907 1154 l -6 1154 z "},"l":{"ha":693,"x_min":-6,"x_max":700,"o":"m 47 794 l 47 0 l 646 0 l 646 167 l 236 167 l 236 794 l 47 794 m -6 -160 l -6 -360 l 700 -360 l 700 -160 l -6 -160 m -6 1154 l -6 954 l 700 954 l 700 1154 l -6 1154 z "},"m":{"ha":1231,"x_min":-6,"x_max":1236,"o":"m 376 800 q 254 782 311 800 q 153 728 197 764 q 81 640 108 693 q 47 515 53 586 l 47 0 l 236 0 l 236 476 q 276 592 240 551 q 379 633 313 633 q 441 622 415 633 q 483 589 467 610 q 509 540 500 568 q 521 479 518 511 l 521 0 l 710 0 l 710 476 q 750 592 714 551 q 853 633 786 633 q 961 599 928 633 q 994 497 994 564 l 994 0 l 1183 0 l 1183 517 q 1151 638 1178 585 q 1082 727 1125 692 q 980 781 1039 763 q 850 800 921 800 q 722 780 782 800 q 617 719 661 760 q 376 800 528 800 m -6 -160 l -6 -360 l 1236 -360 l 1236 -160 l -6 -160 m -6 1154 l -6 954 l 1236 954 l 1236 1154 l -6 1154 z "},"n":{"ha":896,"x_min":-6,"x_max":904,"o":"m 450 800 q 309 781 379 800 q 183 726 239 763 q 90 638 126 690 q 47 517 53 585 l 47 0 l 236 0 l 236 497 q 315 599 257 564 q 447 633 372 633 q 517 623 481 633 q 585 592 554 613 q 636 543 615 572 q 660 476 657 514 l 660 0 l 849 0 l 849 515 q 804 640 843 586 q 708 728 765 693 q 583 782 651 764 q 450 800 514 800 m -6 -160 l -6 -360 l 904 -360 l 904 -160 l -6 -160 m -6 1154 l -6 954 l 904 954 l 904 1154 l -6 1154 z "},"o":{"ha":908,"x_min":-6,"x_max":915,"o":"m 226 396 q 246 486 226 443 q 297 561 265 529 q 370 613 329 593 q 454 632 411 632 q 538 615 497 632 q 610 566 579 597 q 660 491 642 535 q 679 396 679 447 q 660 303 679 346 q 610 229 642 260 q 538 181 579 199 q 454 164 497 164 q 370 183 411 164 q 297 233 329 201 q 246 306 265 264 q 226 396 226 349 m 42 396 q 74 241 42 314 q 163 113 107 168 q 293 25 218 57 q 454 -7 368 -7 q 619 25 543 -7 q 749 113 694 57 q 835 241 804 168 q 867 396 867 314 q 837 551 867 478 q 752 681 807 625 q 622 769 697 736 q 454 801 546 801 q 286 769 363 801 q 156 681 210 736 q 72 551 101 625 q 42 396 42 478 m -6 -160 l -6 -360 l 914 -360 l 914 -160 l -6 -160 m -6 1154 l -6 954 l 915 954 l 915 1154 l -6 1154 z "},"p":{"ha":899,"x_min":-6,"x_max":907,"o":"m 449 794 l 47 794 l 47 0 l 236 0 l 236 628 l 432 628 q 505 624 465 628 q 578 608 544 619 q 635 578 613 597 q 658 529 658 560 q 598 451 658 472 q 432 429 538 429 l 308 429 l 308 243 l 379 243 q 483 246 429 243 q 590 258 538 249 q 690 285 642 267 q 773 337 738 304 q 830 418 808 369 q 851 535 851 467 q 813 678 851 626 q 715 756 774 729 q 584 788 656 782 q 449 794 513 794 m -6 -160 l -6 -360 l 906 -360 l 906 -160 l -6 -160 m -6 1154 l -6 954 l 907 954 l 907 1154 l -6 1154 z "},"q":{"ha":908,"x_min":-6,"x_max":915,"o":"m 226 396 q 246 486 226 443 q 297 561 265 529 q 370 613 329 593 q 454 632 411 632 q 538 615 497 632 q 610 566 579 597 q 660 491 642 535 q 679 396 679 447 q 641 269 679 324 q 549 186 603 214 l 549 338 l 360 338 l 360 188 q 265 272 304 215 q 226 396 226 328 m 43 396 q 66 260 43 325 q 131 144 89 196 q 231 55 172 92 q 360 3 289 18 l 360 -104 l 549 -47 l 549 3 q 676 55 618 18 q 776 144 735 92 q 842 262 818 197 q 865 396 865 326 q 835 551 865 478 q 751 681 806 625 q 622 769 697 736 q 454 801 546 801 q 287 769 363 801 q 157 681 211 736 q 73 551 103 625 q 43 396 43 478 m -6 -160 l -6 -360 l 914 -360 l 914 -160 l -6 -160 m -6 1154 l -6 954 l 915 954 l 915 1154 l -6 1154 z "},"r":{"ha":897,"x_min":-6,"x_max":903,"o":"m -6 -160 l -6 -360 l 903 -360 l 903 -160 l -6 -160 m -6 1154 l -6 954 l 903 954 l 903 1154 l -6 1154 m 661 0 l 850 0 l 850 128 q 821 238 850 181 q 743 332 792 296 q 821 408 792 364 q 850 535 850 453 q 812 678 850 626 q 714 756 774 729 q 583 788 654 782 q 449 794 513 794 l 47 794 l 47 0 l 236 0 l 236 628 l 432 628 q 505 624 465 628 q 578 608 544 619 q 634 578 611 597 q 657 529 657 560 q 597 451 657 472 q 432 429 538 429 l 308 429 l 308 243 l 529 243 q 578 227 556 243 q 617 189 600 211 q 646 142 635 167 q 661 100 657 117 l 661 0 z "},"s":{"ha":886,"x_min":-6,"x_max":892,"o":"m 453 0 q 584 6 517 0 q 706 36 651 11 q 794 113 760 61 q 829 260 829 165 q 793 385 829 339 q 699 454 757 431 q 568 485 640 478 q 424 492 496 492 q 284 502 331 492 q 238 558 238 513 q 258 597 238 583 q 310 618 279 611 q 379 626 342 625 q 450 628 417 628 l 824 628 l 824 794 l 424 794 q 292 789 358 794 q 171 758 225 783 q 82 681 117 733 q 47 535 47 628 q 83 410 47 456 q 178 340 119 364 q 308 310 236 317 q 451 303 381 303 q 592 292 544 303 q 639 236 639 281 q 618 197 639 211 q 566 176 597 183 q 497 168 535 169 q 426 167 460 167 l 53 167 l 53 0 l 453 0 m -6 -160 l -6 -360 l 892 -360 l 892 -160 l -6 -160 m -6 1154 l -6 954 l 892 954 l 892 1154 l -6 1154 z "},"t":{"ha":829,"x_min":-6,"x_max":838,"o":"m -6 -160 l -6 -360 l 836 -360 l 836 -160 l -6 -160 m -6 1154 l -6 954 l 838 954 l 838 1154 l -6 1154 m 782 794 l 47 794 l 47 628 l 321 628 l 321 0 l 511 0 l 511 628 l 782 628 l 782 794 z "},"u":{"ha":896,"x_min":-6,"x_max":901,"o":"m 450 -6 q 583 13 514 -6 q 708 66 651 31 q 804 155 765 101 q 849 279 843 208 l 849 794 l 660 794 l 660 318 q 636 251 657 281 q 585 202 615 222 q 517 172 554 182 q 447 161 481 161 q 315 196 372 161 q 236 297 257 231 l 236 794 l 47 794 l 47 278 q 90 157 53 210 q 183 68 126 104 q 309 13 239 32 q 450 -6 379 -6 m -6 -160 l -6 -360 l 901 -360 l 901 -160 l -6 -160 m -6 1154 l -6 954 l 901 954 l 901 1154 l -6 1154 z "},"v":{"ha":896,"x_min":-6,"x_max":901,"o":"m 47 794 l 47 353 q 213 163 118 251 q 397 0 307 75 l 497 0 q 689 169 601 75 q 849 353 776 264 l 849 794 l 660 794 l 660 411 q 554 286 607 340 q 449 189 501 232 q 236 411 318 306 l 236 794 l 47 794 m -6 -160 l -6 -360 l 901 -360 l 901 -160 l -6 -160 m -6 1154 l -6 954 l 901 954 l 901 1154 l -6 1154 z "},"w":{"ha":1231,"x_min":-6,"x_max":1236,"o":"m 854 -6 q 976 13 918 -6 q 1078 66 1033 31 q 1150 155 1122 101 q 1183 279 1178 208 l 1183 794 l 994 794 l 994 318 q 954 202 990 243 q 851 161 918 161 q 790 173 815 161 q 747 206 764 185 q 722 255 731 226 q 710 315 713 283 l 710 794 l 521 794 l 521 318 q 481 202 517 243 q 378 161 444 161 q 269 196 303 161 q 236 297 236 231 l 236 794 l 47 794 l 47 278 q 79 156 53 208 q 149 67 106 103 q 251 13 192 32 q 381 -6 310 -6 q 509 15 449 -6 q 614 75 569 35 q 854 -6 703 -6 m -6 -160 l -6 -360 l 1236 -360 l 1236 -160 l -6 -160 m -6 1154 l -6 954 l 1236 954 l 1236 1154 l -6 1154 z "},"x":{"ha":899,"x_min":-6,"x_max":907,"o":"m 665 100 l 665 0 l 851 0 l 851 128 q 822 238 851 181 q 744 332 793 296 q 822 408 793 364 q 851 535 851 453 l 851 794 l 661 794 l 661 529 q 606 452 661 474 q 454 431 550 431 q 295 451 353 431 q 238 529 238 472 l 238 794 l 47 794 l 47 535 q 76 408 47 453 q 154 332 106 364 q 76 238 106 296 q 47 128 47 181 l 47 0 l 233 0 l 233 100 q 249 140 238 117 q 276 186 260 164 q 315 224 293 208 q 363 243 338 240 l 531 243 q 580 227 557 243 q 620 189 603 211 q 649 142 638 167 q 665 100 661 117 m -6 -160 l -6 -360 l 907 -360 l 907 -160 l -6 -160 m -6 1154 l -6 954 l 907 954 l 907 1154 l -6 1154 z "},"y":{"ha":896,"x_min":-6,"x_max":903,"o":"m 353 0 l 542 0 l 542 239 q 650 271 597 249 q 746 328 703 293 q 817 410 789 363 q 849 515 844 457 l 849 794 l 660 794 l 660 554 q 636 488 657 517 q 585 438 615 458 q 517 408 554 418 q 447 397 481 397 q 315 432 372 397 q 236 533 257 467 l 236 794 l 47 794 l 47 514 q 78 411 51 457 q 146 331 104 365 q 241 273 188 296 q 353 239 294 250 l 353 0 m -4 -160 l -4 -360 l 901 -360 l 901 -160 l -4 -160 m -6 1154 l -6 954 l 903 954 l 903 1154 l -6 1154 z "},"z":{"ha":886,"x_min":-6,"x_max":892,"o":"m 49 0 l 833 0 l 833 167 l 239 167 l 239 236 q 288 292 239 281 q 429 303 336 303 q 573 310 500 303 q 704 340 646 317 q 799 410 763 364 q 836 535 836 456 l 836 794 l 51 794 l 51 628 l 646 628 l 646 558 q 598 502 646 513 q 457 492 550 492 q 312 485 385 492 q 181 454 239 478 q 85 385 122 431 q 49 260 49 339 l 49 0 m -6 -160 l -6 -360 l 890 -360 l 890 -160 l -6 -160 m -6 1154 l -6 954 l 892 954 l 892 1154 l -6 1154 z "},"{":{"ha":803,"x_min":-6,"x_max":808,"o":"m 442 -160 l 396 -160 q 326 -139 363 -160 q 257 -86 289 -118 q 204 -15 225 -54 q 183 63 183 25 l 183 735 q 204 811 183 772 q 257 882 225 850 q 326 934 289 914 q 396 954 363 954 l 433 954 q 397 883 411 919 q 381 807 383 846 l 381 4 q 400 -80 383 -39 q 442 -160 417 -121 m 393 -360 l 808 -360 l 808 -160 l 782 -160 q 712 -139 749 -160 q 643 -86 675 -118 q 590 -15 611 -54 q 569 63 569 25 l 569 735 q 590 811 569 772 q 643 882 611 850 q 712 934 675 914 q 782 954 749 954 l 808 954 l 808 1154 l 393 1154 q 260 1126 328 1154 q 135 1051 192 1099 q 39 941 78 1004 q -6 807 0 878 l -6 4 q 39 -133 0 -67 q 135 -249 78 -199 q 260 -329 192 -299 q 393 -360 328 -360 z "},"|":{"ha":283,"x_min":-6,"x_max":290,"o":"m -6 1154 l 290 1154 l 290 954 l 236 954 l 236 -160 l 290 -160 l 290 -360 l -6 -360 l -6 -160 l 47 -160 l 47 954 l -6 954 l -6 1154 z "},"}":{"ha":803,"x_min":-6,"x_max":808,"o":"m 410 -360 q 542 -329 474 -360 q 668 -249 611 -299 q 764 -133 725 -199 q 808 4 803 -67 l 808 807 q 764 941 803 878 q 668 1051 725 1004 q 542 1126 611 1099 q 410 1154 474 1154 l -6 1154 l -6 954 l 21 954 q 91 934 54 954 q 160 882 128 914 q 213 811 192 850 q 233 735 233 772 l 233 63 q 213 -15 233 25 q 160 -86 192 -54 q 91 -139 128 -118 q 21 -160 54 -160 l -6 -160 l -6 -360 l 410 -360 m 361 -160 q 403 -80 386 -121 q 422 4 419 -39 l 422 807 q 406 883 419 846 q 369 954 392 919 l 407 954 q 477 934 440 954 q 546 882 514 914 q 599 811 578 850 q 619 735 619 772 l 619 63 q 599 -15 619 25 q 546 -86 578 -54 q 477 -139 514 -118 q 407 -160 440 -160 l 361 -160 z "},"~":{"ha":283,"x_min":-6,"x_max":290,"o":"m 236 794 l 47 794 l 47 606 l 236 606 l 236 794 m -6 -160 l -6 -360 l 290 -360 l 290 -160 l -6 -160 m -6 1154 l -6 954 l 290 954 l 290 1154 l -6 1154 m 236 553 l 47 553 l 47 0 l 236 0 l 236 553 z "},"":{"ha":333,"x_min":0,"x_max":0,"o":""},"€":{"ha":893,"x_min":-6,"x_max":901,"o":"m 689 376 l 689 211 l 453 211 q 506 178 479 190 q 558 167 533 167 l 846 167 l 846 0 l 556 0 q 456 15 507 0 q 358 59 406 31 q 271 126 311 88 q 203 211 231 165 l 47 211 l 47 376 l 157 376 l 157 417 l 47 417 l 47 582 l 201 582 q 270 667 229 628 q 358 735 311 707 q 456 778 406 763 q 556 794 507 794 l 846 794 l 846 628 l 558 628 q 504 615 532 628 q 449 582 476 603 l 689 582 l 689 417 l 346 417 l 346 389 q 347 376 346 378 l 689 376 m -6 1154 l 901 1154 l 901 954 l -6 954 l -6 1154 m -6 -160 l 900 -160 l 900 -360 l -6 -360 l -6 -160 z "},"‚":{"ha":283,"x_min":-6,"x_max":289,"o":"m 47 -85 q 105 -73 72 -85 q 167 -43 138 -61 q 216 -5 196 -25 q 236 32 236 15 l 236 189 l 47 189 l 47 -85 m -6 -160 l -6 -360 l 289 -360 l 289 -160 l -6 -160 m -6 1154 l -6 954 l 289 954 l 289 1154 l -6 1154 z "},"ƒ":{"ha":899,"x_min":-6,"x_max":904,"o":"m -6 1354 l -6 1154 l 904 1154 l 904 1354 l -6 1354 z "},"„":{"ha":525,"x_min":-6,"x_max":532,"o":"m 47 -85 q 105 -73 72 -85 q 167 -43 138 -61 q 216 -5 196 -25 q 236 32 236 15 l 236 189 l 47 189 l 47 -85 m -6 -160 l -6 -360 l 532 -360 l 532 -160 l -6 -160 m -6 1154 l -6 954 l 532 954 l 532 1154 l -6 1154 m 289 -85 q 347 -73 314 -85 q 408 -43 379 -61 q 458 -5 438 -25 q 478 32 478 15 l 478 189 l 289 189 l 289 -85 z "},"…":{"ha":806,"x_min":-6,"x_max":813,"o":"m 308 0 l 497 0 l 497 189 l 308 189 l 308 0 m -6 -160 l -6 -360 l 813 -360 l 813 -160 l -6 -160 m -6 1154 l -6 954 l 813 954 l 813 1154 l -6 1154 m 569 0 l 758 0 l 758 189 l 569 189 l 569 0 m 47 0 l 236 0 l 236 189 l 47 189 l 47 0 z "},"†":{"ha":492,"x_min":-6,"x_max":499,"o":"m 443 625 l 443 436 l 336 436 l 336 0 l 147 0 l 147 436 l 46 436 l 46 625 l 147 625 l 147 794 l 336 794 l 336 625 l 443 625 m -6 1154 l 499 1154 l 499 954 l -6 954 l -6 1154 m -6 -160 l 497 -160 l 497 -360 l -6 -360 l -6 -160 z "},"‡":{"ha":492,"x_min":-6,"x_max":499,"o":"m 443 625 l 443 436 l 336 436 l 336 358 l 443 358 l 443 169 l 336 169 l 336 0 l 147 0 l 147 169 l 46 169 l 46 358 l 147 358 l 147 436 l 46 436 l 46 625 l 147 625 l 147 794 l 336 794 l 336 625 l 443 625 m -6 1154 l 499 1154 l 499 954 l -6 954 l -6 1154 m -6 -160 l 497 -160 l 497 -360 l -6 -360 l -6 -160 z "},"ˆ":{"ha":896,"x_min":-6,"x_max":901,"o":"m 501 954 l 440 1050 l 389 954 l 501 954 m -6 1154 l -6 954 l 186 954 l 269 1103 l 610 1103 l 704 954 l 901 954 l 901 1154 l -6 1154 m 901 -160 l -6 -160 l -6 -360 l 901 -360 l 901 -160 z "},"‰":{"ha":1539,"x_min":-7,"x_max":1546,"o":"m 1546 954 l 1546 1154 l -7 1154 l -7 954 l 1546 954 m 1546 -360 l 1546 -160 l -7 -160 l -7 -360 l 1546 -360 m 481 0 l 818 794 l 615 794 l 281 0 l 481 0 m 768 201 q 792 263 768 238 q 847 288 817 288 q 903 264 879 288 q 926 201 926 240 q 903 142 926 165 q 847 119 879 119 q 792 144 817 119 q 768 201 768 168 m 643 201 q 658 124 643 161 q 701 60 674 88 q 765 16 728 32 q 847 0 803 0 q 929 16 892 0 q 994 60 967 32 q 1036 124 1021 88 q 1051 201 1051 161 q 1037 280 1051 243 q 996 344 1022 317 q 931 388 969 372 q 847 404 893 404 q 764 388 801 404 q 699 344 726 372 q 658 280 672 317 q 643 201 643 243 m 172 592 q 197 653 172 628 q 251 678 221 678 q 307 654 283 678 q 331 592 331 631 q 307 533 331 556 q 251 510 283 510 q 197 534 221 510 q 172 592 172 558 m 47 592 q 63 515 47 551 q 105 450 78 478 q 169 406 132 422 q 251 390 207 390 q 333 406 296 390 q 398 450 371 422 q 440 515 425 478 q 456 592 456 551 q 441 670 456 633 q 400 735 426 707 q 335 778 374 763 q 251 794 297 794 q 168 778 206 794 q 103 735 131 763 q 62 670 76 707 q 47 592 47 633 m 1208 201 q 1233 263 1208 238 q 1288 288 1257 288 q 1343 264 1319 288 q 1367 201 1367 240 q 1343 142 1367 165 q 1288 119 1319 119 q 1233 144 1257 119 q 1208 201 1208 168 m 1083 201 q 1099 124 1083 161 q 1141 60 1114 88 q 1206 16 1168 32 q 1288 0 1243 0 q 1369 16 1332 0 q 1434 60 1407 32 q 1476 124 1461 88 q 1492 201 1492 161 q 1477 280 1492 243 q 1436 344 1463 317 q 1372 388 1410 372 q 1288 404 1333 404 q 1204 388 1242 404 q 1140 344 1167 372 q 1098 280 1113 317 q 1083 201 1083 243 z "},"Š":{"ha":899,"x_min":-6,"x_max":908,"o":"m 515 1103 l 721 1103 l 638 954 l 908 954 l 908 1154 l -6 1154 l -6 954 l 261 954 l 167 1103 l 368 1103 l 450 978 l 515 1103 m 908 -160 l -6 -160 l -6 -360 l 908 -360 l 908 -160 m 50 0 l 464 0 q 597 6 528 0 q 722 36 665 11 q 815 113 779 61 q 851 260 851 165 q 813 385 851 339 q 715 454 775 431 q 581 485 654 478 q 435 492 507 492 q 290 502 342 492 q 238 558 238 513 q 260 597 238 583 q 316 618 282 611 q 389 626 350 625 q 461 628 428 628 l 849 628 l 849 794 l 435 794 q 301 789 369 794 q 176 758 233 783 q 83 681 119 733 q 47 535 47 628 q 85 410 47 456 q 183 340 124 364 q 317 310 243 317 q 463 303 392 303 q 608 292 556 303 q 661 236 661 281 q 639 197 661 211 q 583 176 617 183 q 510 168 549 169 q 438 167 471 167 l 50 167 l 50 0 z "},"‹":{"ha":606,"x_min":32,"x_max":611,"o":"m 32 396 l 399 -360 l 611 -360 l 611 -160 l 511 -160 l 242 397 l 511 954 l 611 954 l 611 1154 l 399 1154 l 32 396 z "},"Œ":{"ha":1314,"x_min":-6,"x_max":1322,"o":"m 1267 0 l 976 0 q 853 24 917 0 q 736 89 790 47 l 736 0 l 446 0 q 313 28 381 0 q 188 103 244 56 q 92 213 131 150 q 47 347 53 276 l 47 447 q 92 581 53 518 q 188 692 131 644 q 313 767 244 739 q 446 794 381 794 l 736 794 l 736 706 q 853 770 790 746 q 976 794 917 794 l 1267 794 l 1267 628 l 979 628 q 909 607 946 628 q 841 554 872 586 q 789 483 810 522 q 767 406 768 443 l 767 386 q 788 310 767 349 q 840 239 808 271 q 909 187 872 207 q 979 167 946 167 l 1267 167 l 1267 0 m -6 1154 l 1322 1154 l 1322 954 l -6 954 l -6 1154 m -6 -160 l 1321 -160 l 1321 -360 l -6 -360 l -6 -160 m 654 628 l 449 628 q 378 608 415 628 q 310 556 342 588 q 257 485 278 524 q 236 408 236 446 l 236 389 q 258 312 238 351 q 310 240 279 272 q 378 188 342 208 q 449 167 415 167 l 654 167 q 602 253 622 207 q 578 347 582 299 l 578 447 q 602 542 582 496 q 654 628 622 588 m 1222 492 l 1222 303 l 871 303 l 871 492 l 1222 492 z "},"Ž":{"ha":899,"x_min":-7,"x_max":908,"o":"m 47 0 l 849 0 l 849 167 l 238 167 l 238 236 q 290 292 238 281 q 436 303 343 303 q 581 310 507 303 q 715 340 656 317 q 813 410 775 364 q 851 535 851 456 l 851 794 l 50 794 l 50 628 l 661 628 l 661 558 q 609 502 661 513 q 464 492 557 492 q 318 485 392 492 q 184 454 244 478 q 85 385 124 431 q 47 260 47 339 l 47 0 m -7 -160 l -7 -360 l 907 -360 l 907 -160 l -7 -160 m 515 1103 l 721 1103 l 638 954 l 908 954 l 908 1154 l -6 1154 l -6 954 l 261 954 l 167 1103 l 368 1103 l 450 978 l 515 1103 z "},"‘":{"ha":283,"x_min":-6,"x_max":289,"o":"m 47 521 q 105 533 72 521 q 167 563 138 544 q 216 601 196 581 q 236 638 236 621 l 236 794 l 47 794 l 47 521 m -6 -160 l -6 -360 l 289 -360 l 289 -160 l -6 -160 m -6 1154 l -6 954 l 289 954 l 289 1154 l -6 1154 z "},"’":{"ha":283,"x_min":-6,"x_max":289,"o":"m 47 521 q 105 533 72 521 q 167 563 138 544 q 216 601 196 581 q 236 638 236 621 l 236 794 l 47 794 l 47 521 m -6 -160 l -6 -360 l 289 -360 l 289 -160 l -6 -160 m -6 1154 l -6 954 l 289 954 l 289 1154 l -6 1154 z "},"“":{"ha":524,"x_min":-6,"x_max":531,"o":"m 47 521 q 105 533 72 521 q 167 563 138 544 q 216 601 196 581 q 236 638 236 621 l 236 794 l 47 794 l 47 521 m -6 -160 l -6 -360 l 531 -360 l 531 -160 l -6 -160 m -6 1154 l -6 954 l 531 954 l 531 1154 l -6 1154 m 288 521 q 345 533 313 521 q 407 563 378 544 q 456 601 436 581 q 476 638 476 621 l 476 794 l 288 794 l 288 521 z "},"”":{"ha":524,"x_min":-6,"x_max":531,"o":"m 47 521 q 105 533 72 521 q 167 563 138 544 q 216 601 196 581 q 236 638 236 621 l 236 794 l 47 794 l 47 521 m -6 -160 l -6 -360 l 531 -360 l 531 -160 l -6 -160 m -6 1154 l -6 954 l 531 954 l 531 1154 l -6 1154 m 288 521 q 345 533 313 521 q 407 563 378 544 q 456 601 436 581 q 476 638 476 621 l 476 794 l 288 794 l 288 521 z "},"•":{"ha":903,"x_min":-6,"x_max":908,"o":"m 43 396 q 73 241 43 314 q 157 113 103 168 q 286 25 211 57 q 451 -7 361 -7 q 615 25 540 -7 q 744 113 690 57 q 829 241 799 168 q 860 396 860 314 q 831 551 860 478 q 747 681 801 625 q 618 769 693 736 q 451 801 543 801 q 284 769 360 801 q 155 681 208 736 q 72 551 101 625 q 43 396 43 478 m -6 -160 l -6 -360 l 908 -360 l 908 -160 l -6 -160 m -6 1154 l -6 954 l 908 954 l 908 1154 l -6 1154 z "},"–":{"ha":460,"x_min":-6,"x_max":465,"o":"m 413 492 l 46 492 l 46 303 l 413 303 l 413 492 m -6 -160 l -6 -360 l 465 -360 l 465 -160 l -6 -160 m -6 1154 l -6 954 l 465 954 l 465 1154 l -6 1154 z "},"—":{"ha":607,"x_min":-6,"x_max":615,"o":"m 614 -160 l -6 -160 l -6 -360 l 614 -360 l 614 -160 m 615 1154 l -6 1154 l -6 954 l 615 954 l 615 1154 m 46 303 l 560 303 l 560 492 l 46 492 l 46 303 z "},"˜":{"ha":896,"x_min":-7,"x_max":904,"o":"m -6 -160 l -6 -360 l 904 -360 l 904 -160 l -6 -160 m 432 954 l 358 1050 l 307 954 l 432 954 m -7 954 l 104 954 l 188 1103 l 465 1103 l 542 1006 l 604 1103 l 792 1103 l 696 954 l 903 954 l 903 1154 l -7 1154 l -7 954 z "},"™":{"ha":544,"x_min":-6,"x_max":553,"o":"m 279 860 l 279 636 l 303 636 l 303 786 l 314 799 l 369 650 q 377 638 374 639 q 385 636 381 636 l 390 636 q 399 638 397 636 q 404 646 401 639 q 405 648 404 647 q 406 650 406 649 l 463 803 l 472 786 l 472 636 l 497 636 l 497 867 l 488 867 q 442 849 463 867 q 407 782 422 832 q 397 740 401 757 q 386 703 393 722 q 374 739 381 718 q 358 790 368 760 l 356 803 q 344 826 351 814 q 327 847 336 838 q 310 862 318 856 q 299 868 303 868 q 295 867 296 868 q 294 867 294 867 l 299 865 q 289 863 299 863 q 279 860 282 863 m 46 831 l 126 831 l 126 636 l 161 636 l 161 831 l 240 831 l 240 867 l 46 867 l 46 831 m -6 -160 l -6 -360 l 553 -360 l 553 -160 l -6 -160 m -6 1154 l -6 954 l 553 954 l 553 1154 l -6 1154 z "},"š":{"ha":899,"x_min":-6,"x_max":908,"o":"m 515 1103 l 721 1103 l 638 954 l 908 954 l 908 1154 l -6 1154 l -6 954 l 261 954 l 167 1103 l 368 1103 l 450 978 l 515 1103 m 908 -160 l -6 -160 l -6 -360 l 908 -360 l 908 -160 m 50 0 l 464 0 q 597 6 528 0 q 722 36 665 11 q 815 113 779 61 q 851 260 851 165 q 813 385 851 339 q 715 454 775 431 q 581 485 654 478 q 435 492 507 492 q 290 502 342 492 q 238 558 238 513 q 260 597 238 583 q 316 618 282 611 q 389 626 350 625 q 461 628 428 628 l 849 628 l 849 794 l 435 794 q 301 789 369 794 q 176 758 233 783 q 83 681 119 733 q 47 535 47 628 q 85 410 47 456 q 183 340 124 364 q 317 310 243 317 q 463 303 392 303 q 608 292 556 303 q 661 236 661 281 q 639 197 661 211 q 583 176 617 183 q 510 168 549 169 q 438 167 471 167 l 50 167 l 50 0 z "},"›":{"ha":606,"x_min":-6,"x_max":574,"o":"m 574 396 l 207 -360 l -6 -360 l -6 -160 l 94 -160 l 364 397 l 94 954 l -6 954 l -6 1154 l 207 1154 l 574 396 z "},"œ":{"ha":1314,"x_min":-6,"x_max":1322,"o":"m 1267 0 l 976 0 q 853 24 917 0 q 736 89 790 47 l 736 0 l 446 0 q 313 28 381 0 q 188 103 244 56 q 92 213 131 150 q 47 347 53 276 l 47 447 q 92 581 53 518 q 188 692 131 644 q 313 767 244 739 q 446 794 381 794 l 736 794 l 736 706 q 853 770 790 746 q 976 794 917 794 l 1267 794 l 1267 628 l 979 628 q 909 607 946 628 q 841 554 872 586 q 789 483 810 522 q 767 406 768 443 l 767 386 q 788 310 767 349 q 840 239 808 271 q 909 187 872 207 q 979 167 946 167 l 1267 167 l 1267 0 m -6 1154 l 1322 1154 l 1322 954 l -6 954 l -6 1154 m -6 -160 l 1321 -160 l 1321 -360 l -6 -360 l -6 -160 m 654 628 l 449 628 q 378 608 415 628 q 310 556 342 588 q 257 485 278 524 q 236 408 236 446 l 236 389 q 258 312 238 351 q 310 240 279 272 q 378 188 342 208 q 449 167 415 167 l 654 167 q 602 253 622 207 q 578 347 582 299 l 578 447 q 602 542 582 496 q 654 628 622 588 m 1222 492 l 1222 303 l 871 303 l 871 492 l 1222 492 z "},"ž":{"ha":899,"x_min":-7,"x_max":908,"o":"m 47 0 l 849 0 l 849 167 l 238 167 l 238 236 q 290 292 238 281 q 436 303 343 303 q 581 310 507 303 q 715 340 656 317 q 813 410 775 364 q 851 535 851 456 l 851 794 l 50 794 l 50 628 l 661 628 l 661 558 q 609 502 661 513 q 464 492 557 492 q 318 485 392 492 q 184 454 244 478 q 85 385 124 431 q 47 260 47 339 l 47 0 m -7 -160 l -7 -360 l 907 -360 l 907 -160 l -7 -160 m 515 1103 l 721 1103 l 638 954 l 908 954 l 908 1154 l -6 1154 l -6 954 l 261 954 l 167 1103 l 368 1103 l 450 978 l 515 1103 z "},"Ÿ":{"ha":896,"x_min":-6,"x_max":901,"o":"m -6 1154 l -6 954 l 186 954 l 186 1103 l 375 1103 l 375 954 l 518 954 l 518 1103 l 707 1103 l 707 954 l 901 954 l 901 1154 l -6 1154 m -6 -160 l -6 -360 l 901 -360 l 901 -160 l -6 -160 m 353 0 l 542 0 l 542 239 q 650 271 597 249 q 746 328 703 293 q 817 410 789 363 q 849 515 844 457 l 849 794 l 660 794 l 660 554 q 636 488 657 517 q 585 438 615 458 q 517 408 554 418 q 447 397 481 397 q 315 432 372 397 q 236 533 257 467 l 236 794 l 47 794 l 47 514 q 78 411 51 457 q 146 331 104 365 q 241 273 188 296 q 353 239 294 250 l 353 0 z "},"¡":{"ha":283,"x_min":-6,"x_max":290,"o":"m 236 794 l 47 794 l 47 606 l 236 606 l 236 794 m -6 -160 l -6 -360 l 290 -360 l 290 -160 l -6 -160 m -6 1154 l -6 954 l 290 954 l 290 1154 l -6 1154 m 236 553 l 47 553 l 47 0 l 236 0 l 236 553 z "},"¢":{"ha":783,"x_min":-6,"x_max":790,"o":"m 236 389 l 236 408 q 249 466 236 436 q 281 523 261 496 q 327 572 301 550 q 381 608 353 594 l 381 186 q 328 222 353 200 q 283 272 303 244 q 250 330 263 300 q 236 389 238 360 m -6 -160 l -6 -360 l 789 -360 l 789 -160 l -6 -160 m -6 1154 l -6 954 l 790 954 l 790 1154 l -6 1154 m 381 7 l 381 -85 l 569 -85 l 569 0 l 736 0 l 736 167 l 569 167 l 569 628 l 736 628 l 736 794 l 569 794 l 569 879 l 381 879 l 381 788 q 265 744 322 775 q 160 667 207 713 q 82 566 113 622 q 47 447 51 510 l 47 347 q 82 228 51 285 q 160 127 113 172 q 265 51 207 82 q 381 7 322 19 z "},"£":{"ha":876,"x_min":-7,"x_max":883,"o":"m 531 794 l 557 794 l 557 628 q 485 626 524 628 q 412 618 446 625 q 356 597 378 611 q 333 558 333 583 q 349 521 333 535 q 394 501 365 507 q 465 493 424 494 q 557 492 506 492 l 686 492 l 686 301 l 463 301 q 369 286 404 301 q 333 236 333 271 q 356 197 333 211 q 412 176 378 183 q 485 168 446 169 q 557 167 524 167 l 832 167 l 832 0 l 47 0 l 47 167 l 156 167 q 143 260 143 206 q 149 301 143 292 l 47 301 l 47 490 l 149 490 q 143 535 143 500 q 179 681 143 628 q 272 758 215 733 q 397 789 329 783 q 531 794 465 794 m 883 -160 l 883 -360 l -7 -360 l -7 -160 l 883 -160 m 883 1154 l 883 954 l -7 954 l -7 1154 l 883 1154 z "},"¤":{"ha":899,"x_min":-6,"x_max":907,"o":"m 907 -160 l -6 -160 l -6 -360 l 907 -360 l 907 -160 m 907 1154 l -6 1154 l -6 954 l 907 954 l 907 1154 m 665 100 l 665 0 l 851 0 l 851 128 q 822 238 851 181 q 744 332 793 296 q 822 408 793 364 q 851 535 851 453 l 851 794 l 661 794 l 661 529 q 651 490 661 504 q 566 551 617 529 q 449 574 515 574 q 332 551 382 574 q 246 490 282 529 q 238 529 238 507 l 238 794 l 47 794 l 47 535 q 76 408 47 453 q 154 332 106 364 q 76 238 106 296 q 47 128 47 181 l 47 0 l 233 0 l 233 100 q 244 131 236 114 q 263 165 251 147 q 344 115 297 133 q 449 97 390 97 q 553 115 507 97 q 636 165 600 133 q 665 100 658 128 m 347 335 q 378 406 347 376 q 449 436 410 436 q 521 408 490 436 q 551 335 551 379 q 521 265 551 292 q 449 238 490 238 q 411 245 429 238 q 378 266 393 253 q 356 297 364 279 q 347 335 347 314 z "},"¥":{"ha":896,"x_min":-6,"x_max":903,"o":"m 721 393 l 721 228 l 542 228 l 542 165 l 721 165 l 721 0 l 542 0 l 542 -83 l 353 -83 l 353 0 l 174 0 l 174 165 l 353 165 l 353 228 l 174 228 l 174 393 l 353 393 l 353 442 q 241 476 294 453 q 146 533 188 499 q 78 614 104 568 q 47 717 51 660 l 47 794 l 236 794 l 236 736 q 315 635 257 669 q 447 600 372 600 q 517 610 481 600 q 585 641 554 621 q 636 690 615 661 q 660 757 657 719 l 660 794 l 849 794 l 849 718 q 817 613 844 660 q 746 531 789 565 q 650 474 703 496 q 542 442 597 451 l 542 393 l 721 393 m -6 -160 l 903 -160 l 903 -360 l -6 -360 l -6 -160 m -6 1154 l 903 1154 l 903 954 l -6 954 l -6 1154 z "},"¦":{"ha":283,"x_min":-6,"x_max":290,"o":"m 236 -160 l 236 358 l 47 358 l 47 -160 l -6 -160 l -6 -360 l 290 -360 l 290 -160 l 236 -160 m 47 436 l 236 436 l 236 954 l 290 954 l 290 1154 l -6 1154 l -6 954 l 47 954 l 47 436 z "},"§":{"ha":899,"x_min":-6,"x_max":907,"o":"m 907 -160 l -6 -160 l -6 -360 l 907 -360 l 907 -160 m 907 1154 l -6 1154 l -6 954 l 907 954 l 907 1154 m 154 332 q 76 238 106 296 q 47 128 47 181 l 47 0 l 233 0 l 233 100 q 244 131 236 114 q 263 165 251 147 q 344 115 297 133 q 449 97 390 97 q 551 115 504 97 q 632 163 597 132 q 688 233 667 193 q 711 318 708 272 l 744 332 q 822 408 793 364 q 851 535 851 453 l 851 794 l 661 794 l 661 529 q 651 490 661 504 q 566 551 617 529 q 449 574 515 574 q 351 558 396 574 q 273 516 307 543 q 217 453 239 489 q 189 375 196 417 l 188 374 q 171 354 179 364 q 154 332 163 344 m 347 335 q 378 406 347 376 q 449 436 410 436 q 521 408 490 436 q 551 335 551 379 q 521 265 551 292 q 449 238 490 238 q 411 245 429 238 q 378 266 393 253 q 356 297 364 279 q 347 335 347 314 z "},"¨":{"ha":896,"x_min":-6,"x_max":901,"o":"m -6 1154 l -6 954 l 186 954 l 186 1103 l 375 1103 l 375 954 l 518 954 l 518 1103 l 707 1103 l 707 954 l 901 954 l 901 1154 l -6 1154 m -6 -160 l -6 -360 l 901 -360 l 901 -160 l -6 -160 z "},"©":{"ha":367,"x_min":-6,"x_max":375,"o":"m 183 867 q 111 847 147 867 q 85 826 96 839 q 63 794 74 813 q 49 764 54 779 q 44 729 44 749 q 49 692 44 710 q 63 656 54 675 q 83 631 72 640 q 110 611 94 621 q 183 592 142 592 q 246 611 218 592 q 278 631 264 621 q 301 656 292 642 q 319 729 319 690 q 301 794 319 768 q 246 847 282 831 q 183 867 218 867 m 183 844 q 235 829 215 844 q 261 808 250 819 q 279 782 272 796 q 296 729 296 758 q 279 669 296 696 q 235 629 264 642 q 212 619 225 624 q 183 615 199 615 q 151 619 167 615 q 122 629 136 624 q 83 669 93 643 q 68 729 68 697 q 85 782 68 758 q 124 828 96 813 q 183 844 151 844 m 225 706 q 182 669 221 669 q 146 683 160 669 q 132 728 132 697 q 147 769 132 756 q 185 782 161 782 q 224 758 215 782 l 243 763 q 223 792 236 781 q 185 804 210 804 q 128 785 149 804 q 107 729 107 765 q 128 668 107 689 q 183 647 149 647 q 224 661 210 647 q 246 700 239 675 l 225 706 m -6 -160 l -6 -360 l 375 -360 l 375 -160 l -6 -160 m -6 1154 l -6 954 l 375 954 l 375 1154 l -6 1154 z "},"ª":{"ha":401,"x_min":-7,"x_max":408,"o":"m -7 -160 l -7 -360 l 408 -360 l 408 -160 l -7 -160 z "},"«":{"ha":979,"x_min":33,"x_max":985,"o":"m 33 394 l 400 1154 l 985 1154 l 985 954 l 883 954 l 615 397 l 885 -160 l 985 -160 l 985 -360 l 400 -360 l 33 394 m 406 396 l 675 954 l 513 954 l 243 396 l 513 -161 l 675 -161 l 406 396 z "},"¬":{"ha":607,"x_min":-6,"x_max":615,"o":"m 614 -160 l -6 -160 l -6 -360 l 614 -360 l 614 -160 m 615 1154 l -6 1154 l -6 954 l 615 954 l 615 1154 m 371 142 l 560 142 l 560 492 l 46 492 l 46 303 l 371 303 l 371 142 z "},"­":{"ha":413,"x_min":-6,"x_max":418,"o":"m 365 492 l 46 492 l 46 303 l 365 303 l 365 492 m -6 -160 l -6 -360 l 418 -360 l 418 -160 l -6 -160 m -6 1154 l -6 954 l 418 954 l 418 1154 l -6 1154 z "},"®":{"ha":367,"x_min":-6,"x_max":375,"o":"m -6 -160 l -6 -360 l 375 -360 l 375 -160 l -6 -160 m -6 1154 l -6 954 l 375 954 l 375 1154 l -6 1154 m 183 867 q 111 847 147 867 q 85 826 96 839 q 63 794 74 813 q 49 764 54 779 q 44 729 44 749 q 49 692 44 710 q 63 656 54 675 q 83 631 72 640 q 110 611 94 621 q 183 592 142 592 q 246 611 218 592 q 278 631 264 621 q 301 656 292 642 q 319 729 319 690 q 301 794 319 768 q 246 847 282 831 q 183 867 218 867 m 183 844 q 235 829 215 844 q 261 808 250 819 q 279 782 272 796 q 296 729 296 758 q 279 669 296 696 q 235 629 264 642 q 212 619 225 624 q 183 615 199 615 q 151 619 167 615 q 122 629 136 624 q 83 669 93 643 q 68 729 68 697 q 85 782 68 758 q 124 828 96 813 q 183 844 151 844 m 119 649 l 143 649 l 143 715 l 158 715 q 179 711 172 715 q 189 698 183 707 q 206 674 194 689 l 218 649 l 243 649 l 226 679 q 193 718 217 711 q 223 733 214 721 q 232 761 232 746 q 226 779 232 774 q 211 793 221 789 q 195 797 206 796 q 172 799 185 799 l 119 799 l 119 649 m 143 736 l 143 778 l 172 778 q 188 777 182 778 q 197 775 193 776 q 211 760 211 774 q 204 742 211 749 q 175 736 197 736 l 143 736 z "},"¯":{"ha":401,"x_min":-7,"x_max":408,"o":"m -7 1154 l -7 954 l 408 954 l 408 1154 l -7 1154 z "},"°":{"ha":896,"x_min":-6,"x_max":901,"o":"m -6 1154 l -6 954 l 353 954 l 353 1103 l 540 1103 l 540 954 l 901 954 l 901 1154 l -6 1154 m -6 -160 l -6 -360 l 901 -360 l 901 -160 l -6 -160 z "},"±":{"ha":607,"x_min":-6,"x_max":615,"o":"m 614 -160 l -6 -160 l -6 -360 l 614 -360 l 614 -160 m 615 1154 l -6 1154 l -6 954 l 615 954 l 615 1154 m 210 238 l 399 238 l 399 399 l 560 399 l 560 588 l 399 588 l 399 751 l 210 751 l 210 588 l 46 588 l 46 399 l 210 399 l 210 238 m 46 0 l 560 0 l 560 189 l 46 189 l 46 0 z "},"²":{"ha":496,"x_min":-7,"x_max":501,"o":"m 501 954 l 501 1154 l -7 1154 l -7 954 l 501 954 m 501 -360 l 501 -160 l -7 -160 l -7 -360 l 501 -360 m 46 461 l 447 461 l 447 576 l 172 576 l 172 588 q 191 596 172 594 q 242 597 210 597 q 313 601 276 597 q 381 617 350 604 q 430 655 411 631 q 449 721 449 679 q 431 798 449 771 q 384 839 413 825 q 321 856 356 853 q 254 858 286 858 l 47 858 l 47 743 l 243 743 l 269 743 q 306 740 289 743 q 322 732 322 738 q 254 722 322 722 q 181 719 218 722 q 114 702 144 715 q 65 664 83 689 q 46 597 46 639 l 46 461 z "},"³":{"ha":439,"x_min":-7,"x_max":444,"o":"m 444 954 l 444 1154 l -7 1154 l -7 954 l 444 954 m 444 -360 l 444 -160 l -7 -160 l -7 -360 l 444 -360 m 200 858 l 47 858 l 47 743 l 189 743 l 214 743 q 250 740 233 743 q 267 732 267 738 q 246 724 267 725 q 189 722 225 722 l 111 722 l 111 597 l 190 597 q 246 596 225 597 q 267 588 267 594 q 250 579 267 582 q 214 576 233 576 l 189 576 l 47 576 l 47 461 l 200 461 q 266 464 232 461 q 328 480 300 467 q 374 521 356 493 q 392 597 392 549 q 384 634 392 621 q 364 658 376 647 q 383 683 375 669 q 392 721 392 697 q 374 798 392 771 q 328 839 356 825 q 266 856 300 853 q 200 858 232 858 z "},"´":{"ha":517,"x_min":-6,"x_max":522,"o":"m -6 1154 l -6 954 l 132 954 l 222 1103 l 418 1103 l 303 954 l 522 954 l 522 1154 l -6 1154 m 522 -160 l -6 -160 l -6 -360 l 522 -360 l 522 -160 z "},"µ":{"ha":896,"x_min":-6,"x_max":901,"o":"m 450 -6 q 236 39 346 -6 l 236 -85 l 47 -85 l 47 794 l 236 794 l 236 297 q 315 196 257 231 q 447 161 372 161 q 517 172 481 161 q 585 202 554 182 q 636 251 615 222 q 660 318 657 281 l 660 794 l 849 794 l 849 279 q 804 155 843 208 q 708 66 765 101 q 583 13 651 31 q 450 -6 514 -6 m -6 -360 l -6 -160 l 901 -160 l 901 -360 l -6 -360 m -6 954 l -6 1154 l 901 1154 l 901 954 l -6 954 z "},"¶":{"ha":867,"x_min":-6,"x_max":875,"o":"m -6 -360 l 874 -360 l 874 -160 l -6 -160 l -6 -360 m -6 954 l 875 954 l 875 1154 l -6 1154 l -6 954 m 819 -86 l 819 794 l 453 794 q 317 788 388 794 q 187 756 246 782 q 89 678 128 729 q 50 535 50 626 q 77 405 50 457 q 149 320 104 353 q 251 271 193 288 q 369 249 308 254 l 369 -86 l 558 -86 l 558 628 l 631 628 l 631 -86 l 819 -86 z "},"·":{"ha":283,"x_min":-6,"x_max":289,"o":"m -6 -160 l -6 -360 l 289 -360 l 289 -160 l -6 -160 m -6 1154 l -6 954 l 289 954 l 289 1154 l -6 1154 m 47 303 l 236 303 l 236 492 l 47 492 l 47 303 z "},"¸":{"ha":783,"x_min":-6,"x_max":790,"o":"m 503 -160 l 274 -160 l 274 -96 l 363 -96 l 363 0 l 503 0 l 503 -160 m -6 954 l -6 1154 l 790 1154 l 790 954 l -6 954 m 274 -218 l 503 -218 l 503 -160 l 789 -160 l 789 -360 l -6 -360 l -6 -160 l 274 -160 l 274 -218 z "},"¹":{"ha":267,"x_min":-7,"x_max":272,"o":"m 272 954 l 272 1154 l -7 1154 l -7 954 l 272 954 m 272 -360 l 272 -160 l -7 -160 l -7 -360 l 272 -360 m 219 858 l 47 858 l 47 742 l 94 742 l 94 460 l 219 460 l 219 858 z "},"º":{"ha":503,"x_min":-7,"x_max":508,"o":"m 508 954 l 508 1154 l -7 1154 l -7 954 l 508 954 m 508 -360 l 508 -160 l -7 -160 l -7 -360 l 508 -360 m 172 660 q 197 721 172 696 q 251 746 221 746 q 307 722 283 746 q 331 660 331 699 q 307 601 331 624 q 251 578 283 578 q 197 602 221 578 q 172 660 172 626 m 47 660 q 63 583 47 619 q 105 518 78 546 q 169 474 132 490 q 251 458 207 458 q 333 474 296 458 q 398 518 371 490 q 440 583 425 546 q 456 660 456 619 q 441 738 456 701 q 400 803 426 775 q 335 847 374 831 q 251 863 297 863 q 168 847 206 863 q 103 803 131 831 q 62 738 76 775 q 47 660 47 701 z "},"»":{"ha":979,"x_min":-6,"x_max":946,"o":"m 304 954 l 574 396 l 304 -161 l 467 -161 l 736 396 l 467 954 l 304 954 m 579 1154 l 946 394 l 579 -360 l -6 -360 l -6 -160 l 94 -160 l 364 397 l 96 954 l -6 954 l -6 1154 l 579 1154 z "},"¼":{"ha":961,"x_min":-6,"x_max":968,"o":"m 968 954 l 968 1154 l -6 1154 l -6 954 l 968 954 m 968 -360 l 968 -160 l -6 -160 l -6 -360 l 968 -360 m 300 0 l 638 794 l 435 794 l 100 0 l 300 0 m 789 0 l 914 0 l 914 397 l 789 397 l 789 233 l 639 233 l 639 397 l 514 397 l 514 108 l 789 108 l 789 0 m 219 794 l 47 794 l 47 678 l 94 678 l 94 396 l 219 396 l 219 794 z "},"½":{"ha":961,"x_min":-6,"x_max":968,"o":"m 968 954 l 968 1154 l -6 1154 l -6 954 l 968 954 m 968 -360 l 968 -160 l -6 -160 l -6 -360 l 968 -360 m 300 0 l 638 794 l 435 794 l 100 0 l 300 0 m 219 794 l 47 794 l 47 678 l 94 678 l 94 396 l 219 396 l 219 794 m 513 0 l 914 0 l 914 115 l 639 115 l 639 126 q 658 135 639 133 q 708 136 676 136 q 780 140 743 136 q 847 156 817 143 q 897 194 878 169 q 915 260 915 218 q 897 337 915 310 q 851 378 879 364 q 788 394 822 392 q 721 397 753 397 l 514 397 l 514 282 l 710 282 l 736 282 q 772 279 756 282 q 789 271 789 276 q 721 261 789 261 q 648 258 685 261 q 581 241 611 254 q 531 203 550 228 q 513 136 513 178 l 513 0 z "},"¾":{"ha":1097,"x_min":-6,"x_max":1104,"o":"m 1104 954 l 1104 1154 l -6 1154 l -6 954 l 1104 954 m 1104 -360 l 1104 -160 l -6 -160 l -6 -360 l 1104 -360 m 436 0 l 774 794 l 571 794 l 236 0 l 436 0 m 925 0 l 1050 0 l 1050 397 l 925 397 l 925 233 l 775 233 l 775 397 l 650 397 l 650 108 l 925 108 l 925 0 m 200 794 l 47 794 l 47 679 l 189 679 l 214 679 q 250 676 233 679 q 267 668 267 674 q 246 660 267 661 q 189 658 225 658 l 111 658 l 111 533 l 190 533 q 246 532 225 533 q 267 524 267 531 q 250 515 267 518 q 214 513 233 513 l 189 513 l 47 513 l 47 397 l 200 397 q 266 400 232 397 q 328 416 300 403 q 374 457 356 429 q 392 533 392 485 q 384 570 392 557 q 364 594 376 583 q 383 619 375 606 q 392 657 392 633 q 374 734 392 707 q 328 775 356 761 q 266 792 300 789 q 200 794 232 794 z "},"¿":{"ha":896,"x_min":-7,"x_max":904,"o":"m -7 -160 l -7 -360 l 904 -360 l 904 -160 l -7 -160 m -7 1154 l -7 954 l 904 954 l 904 1154 l -7 1154 m 811 553 l 621 553 l 621 543 q 575 503 621 515 q 436 492 529 492 q 295 485 365 492 q 169 454 225 478 q 79 385 114 431 q 44 260 44 339 q 81 113 44 165 q 174 36 117 61 q 299 6 231 11 q 432 0 367 0 l 846 0 l 846 167 l 458 167 q 386 168 425 167 q 313 176 347 169 q 257 197 279 183 q 235 236 235 211 q 275 292 235 282 q 408 303 315 303 q 552 310 481 303 q 681 340 624 317 q 775 410 739 364 q 811 535 811 456 l 811 553 m 811 794 l 622 794 l 622 606 l 811 606 l 811 794 z "},"À":{"ha":896,"x_min":-7,"x_max":900,"o":"m 900 -160 l -7 -160 l -7 -360 l 900 -360 l 900 -160 m 900 954 l 900 1154 l -7 1154 l -7 954 l 392 954 l 276 1103 l 472 1103 l 563 954 l 900 954 m 849 794 l 446 794 q 313 776 381 794 q 188 723 244 758 q 92 634 131 688 q 47 510 53 581 l 47 0 l 236 0 l 236 242 l 588 242 l 588 431 l 236 431 l 236 471 q 260 538 239 508 q 311 587 281 567 q 378 617 342 607 q 449 628 415 628 l 660 628 l 660 0 l 849 0 l 849 794 z "},"Á":{"ha":896,"x_min":-6,"x_max":901,"o":"m -6 1154 l -6 954 l 332 954 l 422 1103 l 618 1103 l 503 954 l 901 954 l 901 1154 l -6 1154 m 901 -160 l -6 -160 l -6 -360 l 901 -360 l 901 -160 m 849 794 l 446 794 q 313 776 381 794 q 188 723 244 758 q 92 634 131 688 q 47 510 53 581 l 47 0 l 236 0 l 236 242 l 588 242 l 588 431 l 236 431 l 236 471 q 260 538 239 508 q 311 587 281 567 q 378 617 342 607 q 449 628 415 628 l 660 628 l 660 0 l 849 0 l 849 794 z "},"Â":{"ha":896,"x_min":-6,"x_max":901,"o":"m 501 954 l 440 1050 l 389 954 l 501 954 m -6 1154 l -6 954 l 186 954 l 269 1103 l 610 1103 l 704 954 l 901 954 l 901 1154 l -6 1154 m 901 -160 l -6 -160 l -6 -360 l 901 -360 l 901 -160 m 849 794 l 446 794 q 313 776 381 794 q 188 723 244 758 q 92 634 131 688 q 47 510 53 581 l 47 0 l 236 0 l 236 242 l 588 242 l 588 431 l 236 431 l 236 471 q 260 538 239 508 q 311 587 281 567 q 378 617 342 607 q 449 628 415 628 l 660 628 l 660 0 l 849 0 l 849 794 z "},"Ã":{"ha":896,"x_min":-7,"x_max":904,"o":"m -6 -160 l -6 -360 l 904 -360 l 904 -160 l -6 -160 m 432 954 l 358 1050 l 307 954 l 432 954 m -7 954 l 104 954 l 188 1103 l 465 1103 l 542 1006 l 604 1103 l 792 1103 l 696 954 l 903 954 l 903 1154 l -7 1154 l -7 954 m 849 794 l 446 794 q 313 776 381 794 q 188 723 244 758 q 92 634 131 688 q 47 510 53 581 l 47 0 l 236 0 l 236 242 l 588 242 l 588 431 l 236 431 l 236 471 q 260 538 239 508 q 311 587 281 567 q 378 617 342 607 q 449 628 415 628 l 660 628 l 660 0 l 849 0 l 849 794 z "},"Ä":{"ha":896,"x_min":-6,"x_max":901,"o":"m -6 1154 l -6 954 l 186 954 l 186 1103 l 375 1103 l 375 954 l 518 954 l 518 1103 l 707 1103 l 707 954 l 901 954 l 901 1154 l -6 1154 m -6 -160 l -6 -360 l 901 -360 l 901 -160 l -6 -160 m 849 794 l 446 794 q 313 776 381 794 q 188 723 244 758 q 92 634 131 688 q 47 510 53 581 l 47 0 l 236 0 l 236 242 l 588 242 l 588 431 l 236 431 l 236 471 q 260 538 239 508 q 311 587 281 567 q 378 617 342 607 q 449 628 415 628 l 660 628 l 660 0 l 849 0 l 849 794 z "},"Å":{"ha":896,"x_min":-6,"x_max":901,"o":"m -6 1154 l -6 954 l 353 954 l 353 1103 l 540 1103 l 540 954 l 901 954 l 901 1154 l -6 1154 m -6 -160 l -6 -360 l 901 -360 l 901 -160 l -6 -160 m 849 794 l 446 794 q 313 776 381 794 q 188 723 244 758 q 92 634 131 688 q 47 510 53 581 l 47 0 l 236 0 l 236 242 l 588 242 l 588 431 l 236 431 l 236 471 q 260 538 239 508 q 311 587 281 567 q 378 617 342 607 q 449 628 415 628 l 660 628 l 660 0 l 849 0 l 849 794 z "},"Æ":{"ha":1429,"x_min":-6,"x_max":1436,"o":"m 1382 0 l 1088 0 q 965 24 1028 0 q 849 88 903 47 l 849 0 l 660 0 l 660 242 l 308 242 l 308 431 l 660 431 l 660 476 q 636 543 657 514 q 585 592 615 572 q 517 623 554 613 q 447 633 481 633 q 315 599 372 633 q 236 497 257 564 l 236 0 l 47 0 l 47 517 q 90 638 53 585 q 183 726 126 690 q 309 781 239 763 q 450 800 379 800 q 544 791 496 800 q 637 764 592 782 q 722 719 682 746 q 790 656 761 692 q 932 756 853 718 q 1088 794 1011 794 l 1382 794 l 1382 628 l 1090 628 q 1020 607 1057 628 q 952 554 983 586 q 900 483 921 522 q 878 406 879 443 l 878 386 q 899 310 878 349 q 951 239 919 271 q 1020 187 983 207 q 1090 167 1057 167 l 1382 167 l 1382 0 m -6 1154 l 1436 1154 l 1436 954 l -6 954 l -6 1154 m -6 -160 l 1436 -160 l 1436 -360 l -6 -360 l -6 -160 m 1338 492 l 1338 303 l 982 303 l 982 492 l 1338 492 z "},"Ç":{"ha":783,"x_min":-6,"x_max":790,"o":"m 503 -160 l 274 -160 l 274 -96 l 363 -96 l 363 11 q 251 57 306 25 q 152 133 196 89 q 80 233 108 178 q 47 347 51 288 l 47 447 q 92 581 53 518 q 188 692 131 644 q 313 767 244 739 q 446 794 381 794 l 736 794 l 736 628 l 449 628 q 378 608 415 628 q 310 556 342 588 q 257 485 278 524 q 236 408 236 446 l 236 389 q 258 312 238 351 q 310 240 279 272 q 378 188 342 208 q 449 167 415 167 l 736 167 l 736 0 l 503 0 l 503 -160 m -6 954 l -6 1154 l 790 1154 l 790 954 l -6 954 m 274 -218 l 503 -218 l 503 -160 l 789 -160 l 789 -360 l -6 -360 l -6 -160 l 274 -160 l 274 -218 z "},"È":{"ha":783,"x_min":-7,"x_max":790,"o":"m 736 0 l 736 167 l 449 167 q 378 187 415 167 q 310 239 342 207 q 257 310 278 271 q 236 386 236 349 l 236 406 q 258 483 238 443 q 310 554 279 522 q 378 607 342 586 q 449 628 415 628 l 736 628 l 736 794 l 446 794 q 313 767 381 794 q 188 692 244 739 q 92 581 131 644 q 47 447 53 518 l 47 347 q 92 213 53 276 q 188 103 131 150 q 313 28 244 56 q 446 0 381 0 l 736 0 m 692 492 l 340 492 l 340 303 l 692 303 l 692 492 m -6 -160 l -6 -360 l 790 -360 l 790 -160 l -6 -160 m 789 954 l 789 1154 l -7 1154 l -7 954 l 375 954 l 260 1103 l 456 1103 l 546 954 l 789 954 z "},"É":{"ha":783,"x_min":-6,"x_max":790,"o":"m 736 0 l 736 167 l 449 167 q 378 187 415 167 q 310 239 342 207 q 257 310 278 271 q 236 386 236 349 l 236 406 q 258 483 238 443 q 310 554 279 522 q 378 607 342 586 q 449 628 415 628 l 736 628 l 736 794 l 446 794 q 313 767 381 794 q 188 692 244 739 q 92 581 131 644 q 47 447 53 518 l 47 347 q 92 213 53 276 q 188 103 131 150 q 313 28 244 56 q 446 0 381 0 l 736 0 m 692 492 l 340 492 l 340 303 l 692 303 l 692 492 m -6 -160 l -6 -360 l 790 -360 l 790 -160 l -6 -160 m -6 1154 l -6 954 l 315 954 l 406 1103 l 601 1103 l 486 954 l 789 954 l 789 1154 l -6 1154 z "},"Ê":{"ha":783,"x_min":-6,"x_max":790,"o":"m 736 0 l 736 167 l 449 167 q 378 187 415 167 q 310 239 342 207 q 257 310 278 271 q 236 386 236 349 l 236 406 q 258 483 238 443 q 310 554 279 522 q 378 607 342 586 q 449 628 415 628 l 736 628 l 736 794 l 446 794 q 313 767 381 794 q 188 692 244 739 q 92 581 131 644 q 47 447 53 518 l 47 347 q 92 213 53 276 q 188 103 131 150 q 313 28 244 56 q 446 0 381 0 l 736 0 m 692 492 l 340 492 l 340 303 l 692 303 l 692 492 m -6 -160 l -6 -360 l 790 -360 l 790 -160 l -6 -160 m 485 954 l 424 1050 l 372 954 l 485 954 m -6 1154 l -6 954 l 169 954 l 253 1103 l 593 1103 l 688 954 l 790 954 l 790 1154 l -6 1154 z "},"Ë":{"ha":783,"x_min":-6,"x_max":790,"o":"m 736 0 l 736 167 l 449 167 q 378 187 415 167 q 310 239 342 207 q 257 310 278 271 q 236 386 236 349 l 236 406 q 258 483 238 443 q 310 554 279 522 q 378 607 342 586 q 449 628 415 628 l 736 628 l 736 794 l 446 794 q 313 767 381 794 q 188 692 244 739 q 92 581 131 644 q 47 447 53 518 l 47 347 q 92 213 53 276 q 188 103 131 150 q 313 28 244 56 q 446 0 381 0 l 736 0 m 692 492 l 340 492 l 340 303 l 692 303 l 692 492 m -6 -160 l -6 -360 l 790 -360 l 790 -160 l -6 -160 m -6 1154 l -6 954 l 169 954 l 169 1103 l 358 1103 l 358 954 l 501 954 l 501 1103 l 690 1103 l 690 954 l 790 954 l 790 1154 l -6 1154 z "},"Ì":{"ha":283,"x_min":-29,"x_max":313,"o":"m 313 954 l 313 1154 l -29 1154 l -29 954 l 108 954 l -7 1103 l 189 1103 l 279 954 l 313 954 m 47 0 l 236 0 l 236 794 l 47 794 l 47 0 m -6 -160 l -6 -360 l 290 -360 l 290 -160 l -6 -160 z "},"Í":{"ha":283,"x_min":-29,"x_max":313,"o":"m 289 -360 l 289 -160 l -7 -160 l -7 -360 l 289 -360 m 47 0 l 236 0 l 236 794 l 47 794 l 47 0 m -29 1154 l -29 954 l 4 954 l 94 1103 l 290 1103 l 175 954 l 313 954 l 313 1154 l -29 1154 z "},"Î":{"ha":283,"x_min":-153,"x_max":432,"o":"m 196 954 l 135 1050 l 83 954 l 196 954 m -153 1154 l -153 954 l -119 954 l -36 1103 l 304 1103 l 399 954 l 432 954 l 432 1154 l -153 1154 m 47 0 l 236 0 l 236 794 l 47 794 l 47 0 m -6 -160 l -6 -360 l 290 -360 l 290 -160 l -6 -160 z "},"Ï":{"ha":283,"x_min":-181,"x_max":465,"o":"m -181 1154 l -181 954 l -119 954 l -119 1103 l 69 1103 l 69 954 l 213 954 l 213 1103 l 401 1103 l 401 954 l 465 954 l 465 1154 l -181 1154 m 47 0 l 236 0 l 236 794 l 47 794 l 47 0 m -6 -160 l -6 -360 l 290 -360 l 290 -160 l -6 -160 z "},"Ð":{"ha":976,"x_min":-6,"x_max":983,"o":"m 983 1154 l -6 1154 l -6 954 l 983 954 l 983 1154 m 983 -160 l -6 -160 l -6 -360 l 983 -360 l 983 -160 m 128 303 l 128 0 l 317 0 l 317 303 l 414 303 l 414 492 l 317 492 l 317 628 l 528 628 q 598 608 561 628 q 665 556 635 588 q 717 485 696 524 q 740 408 738 446 l 740 386 q 717 310 738 349 q 665 239 696 271 q 598 187 635 207 q 528 167 561 167 l 389 167 l 389 0 l 531 0 q 663 28 594 0 q 789 103 732 56 q 885 213 846 150 q 929 347 924 276 l 929 447 q 885 581 924 518 q 789 692 846 644 q 663 767 732 739 q 531 794 594 794 l 128 794 l 128 492 l 47 492 l 47 303 l 128 303 z "},"Ñ":{"ha":896,"x_min":-7,"x_max":904,"o":"m -6 -160 l -6 -360 l 904 -360 l 904 -160 l -6 -160 m 432 954 l 358 1050 l 307 954 l 432 954 m -7 954 l 104 954 l 188 1103 l 465 1103 l 542 1006 l 604 1103 l 792 1103 l 696 954 l 903 954 l 903 1154 l -7 1154 l -7 954 m 450 800 l 47 800 l 47 0 l 236 0 l 236 633 l 447 633 q 517 623 481 633 q 585 592 554 613 q 636 543 615 572 q 660 476 657 514 l 660 0 l 849 0 l 849 515 q 804 640 843 586 q 708 728 765 693 q 583 782 651 764 q 450 800 514 800 z "},"Ò":{"ha":896,"x_min":-7,"x_max":900,"o":"m 900 -160 l -7 -160 l -7 -360 l 900 -360 l 900 -160 m 900 954 l 900 1154 l -7 1154 l -7 954 l 392 954 l 276 1103 l 472 1103 l 563 954 l 900 954 m 226 396 q 246 486 226 443 q 297 561 265 529 q 368 613 328 593 q 451 632 408 632 q 535 615 494 632 q 606 566 575 597 q 655 491 636 535 q 674 396 674 447 q 655 303 674 346 q 606 229 636 260 q 535 181 575 199 q 451 164 494 164 q 368 183 408 164 q 297 233 328 201 q 246 306 265 264 q 226 396 226 349 m 43 396 q 73 241 43 314 q 157 113 103 168 q 286 25 211 57 q 451 -7 361 -7 q 615 25 540 -7 q 744 113 690 57 q 829 241 799 168 q 860 396 860 314 q 831 551 860 478 q 747 681 801 625 q 618 769 693 736 q 451 801 543 801 q 284 769 360 801 q 155 681 208 736 q 72 551 101 625 q 43 396 43 478 z "},"Ó":{"ha":896,"x_min":-6,"x_max":901,"o":"m -6 1154 l -6 954 l 332 954 l 422 1103 l 618 1103 l 503 954 l 901 954 l 901 1154 l -6 1154 m 901 -160 l -6 -160 l -6 -360 l 901 -360 l 901 -160 m 226 396 q 246 486 226 443 q 297 561 265 529 q 368 613 328 593 q 451 632 408 632 q 535 615 494 632 q 606 566 575 597 q 655 491 636 535 q 674 396 674 447 q 655 303 674 346 q 606 229 636 260 q 535 181 575 199 q 451 164 494 164 q 368 183 408 164 q 297 233 328 201 q 246 306 265 264 q 226 396 226 349 m 43 396 q 73 241 43 314 q 157 113 103 168 q 286 25 211 57 q 451 -7 361 -7 q 615 25 540 -7 q 744 113 690 57 q 829 241 799 168 q 860 396 860 314 q 831 551 860 478 q 747 681 801 625 q 618 769 693 736 q 451 801 543 801 q 284 769 360 801 q 155 681 208 736 q 72 551 101 625 q 43 396 43 478 z "},"Ô":{"ha":896,"x_min":-6,"x_max":901,"o":"m 501 954 l 440 1050 l 389 954 l 501 954 m -6 1154 l -6 954 l 186 954 l 269 1103 l 610 1103 l 704 954 l 901 954 l 901 1154 l -6 1154 m 901 -160 l -6 -160 l -6 -360 l 901 -360 l 901 -160 m 226 396 q 246 486 226 443 q 297 561 265 529 q 368 613 328 593 q 451 632 408 632 q 535 615 494 632 q 606 566 575 597 q 655 491 636 535 q 674 396 674 447 q 655 303 674 346 q 606 229 636 260 q 535 181 575 199 q 451 164 494 164 q 368 183 408 164 q 297 233 328 201 q 246 306 265 264 q 226 396 226 349 m 43 396 q 73 241 43 314 q 157 113 103 168 q 286 25 211 57 q 451 -7 361 -7 q 615 25 540 -7 q 744 113 690 57 q 829 241 799 168 q 860 396 860 314 q 831 551 860 478 q 747 681 801 625 q 618 769 693 736 q 451 801 543 801 q 284 769 360 801 q 155 681 208 736 q 72 551 101 625 q 43 396 43 478 z "},"Õ":{"ha":896,"x_min":-7,"x_max":904,"o":"m -6 -160 l -6 -360 l 904 -360 l 904 -160 l -6 -160 m 432 954 l 358 1050 l 307 954 l 432 954 m -7 954 l 104 954 l 188 1103 l 465 1103 l 542 1006 l 604 1103 l 792 1103 l 696 954 l 903 954 l 903 1154 l -7 1154 l -7 954 m 226 396 q 246 486 226 443 q 297 561 265 529 q 368 613 328 593 q 451 632 408 632 q 535 615 494 632 q 606 566 575 597 q 655 491 636 535 q 674 396 674 447 q 655 303 674 346 q 606 229 636 260 q 535 181 575 199 q 451 164 494 164 q 368 183 408 164 q 297 233 328 201 q 246 306 265 264 q 226 396 226 349 m 43 396 q 73 241 43 314 q 157 113 103 168 q 286 25 211 57 q 451 -7 361 -7 q 615 25 540 -7 q 744 113 690 57 q 829 241 799 168 q 860 396 860 314 q 831 551 860 478 q 747 681 801 625 q 618 769 693 736 q 451 801 543 801 q 284 769 360 801 q 155 681 208 736 q 72 551 101 625 q 43 396 43 478 z "},"Ö":{"ha":896,"x_min":-6,"x_max":901,"o":"m -6 1154 l -6 954 l 186 954 l 186 1103 l 375 1103 l 375 954 l 518 954 l 518 1103 l 707 1103 l 707 954 l 901 954 l 901 1154 l -6 1154 m -6 -160 l -6 -360 l 901 -360 l 901 -160 l -6 -160 m 226 396 q 246 486 226 443 q 297 561 265 529 q 368 613 328 593 q 451 632 408 632 q 535 615 494 632 q 606 566 575 597 q 655 491 636 535 q 674 396 674 447 q 655 303 674 346 q 606 229 636 260 q 535 181 575 199 q 451 164 494 164 q 368 183 408 164 q 297 233 328 201 q 246 306 265 264 q 226 396 226 349 m 43 396 q 73 241 43 314 q 157 113 103 168 q 286 25 211 57 q 451 -7 361 -7 q 615 25 540 -7 q 744 113 690 57 q 829 241 799 168 q 860 396 860 314 q 831 551 860 478 q 747 681 801 625 q 618 769 693 736 q 451 801 543 801 q 284 769 360 801 q 155 681 208 736 q 72 551 101 625 q 43 396 43 478 z "},"×":{"ha":607,"x_min":-6,"x_max":615,"o":"m 56 283 l 189 149 l 303 263 l 417 149 l 550 283 l 436 397 l 553 513 l 418 646 l 303 531 l 188 646 l 53 513 l 169 397 l 56 283 m 614 -160 l -6 -160 l -6 -360 l 614 -360 l 614 -160 m 615 1154 l -6 1154 l -6 954 l 615 954 l 615 1154 z "},"Ø":{"ha":903,"x_min":-6,"x_max":910,"o":"m 43 396 q 72 551 43 478 q 155 681 101 625 q 284 769 208 736 q 451 801 360 801 q 618 769 543 801 q 747 681 693 736 q 831 551 801 625 q 860 396 860 478 q 829 241 860 314 q 744 113 799 168 q 615 25 690 57 q 451 -7 540 -7 q 286 25 361 -7 q 157 113 211 57 q 73 241 103 168 q 43 396 43 314 m -6 1154 l 910 1154 l 910 954 l -6 954 l -6 1154 m -6 -160 l 910 -160 l 910 -360 l -6 -360 l -6 -160 m 619 550 l 453 164 q 535 181 496 164 q 606 229 575 199 q 655 303 636 260 q 674 396 674 346 q 659 481 674 442 q 619 550 644 519 m 226 396 q 242 315 226 353 q 283 246 257 276 l 447 632 q 365 611 406 631 q 294 560 325 592 q 245 485 264 528 q 226 396 226 443 z "},"Ù":{"ha":896,"x_min":-7,"x_max":900,"o":"m 444 -6 q 585 13 515 -6 q 712 68 656 32 q 805 157 768 104 q 847 278 842 210 l 847 794 l 658 794 l 658 297 q 580 196 638 231 q 447 161 522 161 q 377 172 414 161 q 310 202 340 182 q 258 251 279 222 q 235 318 238 281 l 235 794 l 46 794 l 46 279 q 90 155 51 208 q 186 66 129 101 q 311 13 243 31 q 444 -6 379 -6 m 900 -160 l -7 -160 l -7 -360 l 900 -360 l 900 -160 m 900 954 l 900 1154 l -7 1154 l -7 954 l 392 954 l 276 1103 l 472 1103 l 563 954 l 900 954 z "},"Ú":{"ha":896,"x_min":-6,"x_max":901,"o":"m -6 1154 l -6 954 l 332 954 l 422 1103 l 618 1103 l 503 954 l 901 954 l 901 1154 l -6 1154 m 901 -160 l -6 -160 l -6 -360 l 901 -360 l 901 -160 m 450 -6 q 583 13 514 -6 q 708 66 651 31 q 804 155 765 101 q 849 279 843 208 l 849 794 l 660 794 l 660 318 q 636 251 657 281 q 585 202 615 222 q 517 172 554 182 q 447 161 481 161 q 315 196 372 161 q 236 297 257 231 l 236 794 l 47 794 l 47 278 q 90 157 53 210 q 183 68 126 104 q 309 13 239 32 q 450 -6 379 -6 z "},"Û":{"ha":896,"x_min":-6,"x_max":901,"o":"m 501 954 l 440 1050 l 389 954 l 501 954 m -6 1154 l -6 954 l 186 954 l 269 1103 l 610 1103 l 704 954 l 901 954 l 901 1154 l -6 1154 m 901 -160 l -6 -160 l -6 -360 l 901 -360 l 901 -160 m 450 -6 q 583 13 514 -6 q 708 66 651 31 q 804 155 765 101 q 849 279 843 208 l 849 794 l 660 794 l 660 318 q 636 251 657 281 q 585 202 615 222 q 517 172 554 182 q 447 161 481 161 q 315 196 372 161 q 236 297 257 231 l 236 794 l 47 794 l 47 278 q 90 157 53 210 q 183 68 126 104 q 309 13 239 32 q 450 -6 379 -6 z "},"Ü":{"ha":896,"x_min":-6,"x_max":901,"o":"m -6 1154 l -6 954 l 186 954 l 186 1103 l 375 1103 l 375 954 l 518 954 l 518 1103 l 707 1103 l 707 954 l 901 954 l 901 1154 l -6 1154 m -6 -160 l -6 -360 l 901 -360 l 901 -160 l -6 -160 m 450 -6 q 583 13 514 -6 q 708 66 651 31 q 804 155 765 101 q 849 279 843 208 l 849 794 l 660 794 l 660 318 q 636 251 657 281 q 585 202 615 222 q 517 172 554 182 q 447 161 481 161 q 315 196 372 161 q 236 297 257 231 l 236 794 l 47 794 l 47 278 q 90 157 53 210 q 183 68 126 104 q 309 13 239 32 q 450 -6 379 -6 z "},"Ý":{"ha":896,"x_min":-6,"x_max":901,"o":"m -6 1154 l -6 954 l 329 954 l 419 1103 l 615 1103 l 500 954 l 901 954 l 901 1154 l -6 1154 m 901 -160 l -6 -160 l -6 -360 l 901 -360 l 901 -160 m 353 0 l 542 0 l 542 239 q 650 271 597 249 q 746 328 703 293 q 817 410 789 363 q 849 515 844 457 l 849 794 l 660 794 l 660 554 q 636 488 657 517 q 585 438 615 458 q 517 408 554 418 q 447 397 481 397 q 315 432 372 397 q 236 533 257 467 l 236 794 l 47 794 l 47 514 q 78 411 51 457 q 146 331 104 365 q 241 273 188 296 q 353 239 294 250 l 353 0 z "},"Þ":{"ha":899,"x_min":-6,"x_max":907,"o":"m 907 -160 l -6 -160 l -6 -360 l 907 -360 l 907 -160 m 907 1154 l -6 1154 l -6 954 l 907 954 l 907 1154 m 47 794 l 47 0 l 236 0 l 236 504 l 432 504 q 505 500 465 504 q 578 485 544 496 q 635 455 613 474 q 658 406 658 436 q 598 327 658 349 q 432 306 538 306 l 308 306 l 308 119 l 379 119 q 483 122 429 119 q 590 134 538 125 q 690 162 642 143 q 773 213 738 181 q 830 294 808 246 q 851 411 851 343 q 813 554 851 503 q 715 632 774 606 q 584 665 656 658 q 449 671 513 671 l 236 671 l 236 794 l 47 794 z "},"ß":{"ha":899,"x_min":-6,"x_max":907,"o":"m -6 954 l 907 954 l 907 1154 l -6 1154 l -6 954 m -6 -360 l 907 -360 l 907 -160 l -6 -160 l -6 -360 m 464 794 l 389 794 q 267 786 328 794 q 158 750 207 778 q 79 671 110 722 q 49 535 49 619 l 49 -83 l 239 -83 l 239 558 q 261 597 239 583 q 317 618 283 611 q 390 626 351 625 q 463 628 429 628 l 472 628 q 538 625 504 628 q 599 615 572 622 q 644 594 626 607 q 661 558 661 581 q 614 503 661 515 q 486 492 567 492 l 308 492 l 308 303 l 442 303 q 529 301 489 303 q 599 293 569 300 q 644 273 628 286 q 661 236 661 260 q 643 201 661 214 q 598 180 625 188 q 537 169 571 172 q 472 167 503 167 l 308 167 l 308 0 l 503 0 q 626 8 564 0 q 739 42 689 15 q 820 121 789 69 q 851 260 851 172 q 844 308 851 288 q 824 344 836 328 q 795 372 811 360 q 761 397 779 385 q 792 417 776 406 q 822 446 808 429 q 843 484 835 463 q 851 535 851 506 q 815 681 851 628 q 722 758 779 733 q 597 789 665 783 q 464 794 528 794 z "},"à":{"ha":896,"x_min":-7,"x_max":900,"o":"m 900 -160 l -7 -160 l -7 -360 l 900 -360 l 900 -160 m 900 954 l 900 1154 l -7 1154 l -7 954 l 392 954 l 276 1103 l 472 1103 l 563 954 l 900 954 m 450 800 q 309 781 379 800 q 183 726 239 763 q 90 638 126 690 q 47 517 53 585 l 47 0 l 236 0 l 236 497 q 315 599 257 564 q 447 633 372 633 q 517 623 481 633 q 585 592 554 613 q 636 543 615 572 q 660 476 657 514 l 660 431 l 308 431 l 308 242 l 660 242 l 660 0 l 849 0 l 849 515 q 804 640 843 586 q 708 728 765 693 q 583 782 651 764 q 450 800 514 800 z "},"á":{"ha":896,"x_min":-6,"x_max":901,"o":"m -6 1154 l -6 954 l 332 954 l 422 1103 l 618 1103 l 503 954 l 901 954 l 901 1154 l -6 1154 m 901 -160 l -6 -160 l -6 -360 l 901 -360 l 901 -160 m 450 800 q 309 781 379 800 q 183 726 239 763 q 90 638 126 690 q 47 517 53 585 l 47 0 l 236 0 l 236 497 q 315 599 257 564 q 447 633 372 633 q 517 623 481 633 q 585 592 554 613 q 636 543 615 572 q 660 476 657 514 l 660 431 l 308 431 l 308 242 l 660 242 l 660 0 l 849 0 l 849 515 q 804 640 843 586 q 708 728 765 693 q 583 782 651 764 q 450 800 514 800 z "},"â":{"ha":896,"x_min":-6,"x_max":901,"o":"m 501 954 l 440 1050 l 389 954 l 501 954 m -6 1154 l -6 954 l 186 954 l 269 1103 l 610 1103 l 704 954 l 901 954 l 901 1154 l -6 1154 m 901 -160 l -6 -160 l -6 -360 l 901 -360 l 901 -160 m 450 800 q 309 781 379 800 q 183 726 239 763 q 90 638 126 690 q 47 517 53 585 l 47 0 l 236 0 l 236 497 q 315 599 257 564 q 447 633 372 633 q 517 623 481 633 q 585 592 554 613 q 636 543 615 572 q 660 476 657 514 l 660 431 l 308 431 l 308 242 l 660 242 l 660 0 l 849 0 l 849 515 q 804 640 843 586 q 708 728 765 693 q 583 782 651 764 q 450 800 514 800 z "},"ã":{"ha":896,"x_min":-7,"x_max":904,"o":"m -6 -160 l -6 -360 l 904 -360 l 904 -160 l -6 -160 m 432 954 l 358 1050 l 307 954 l 432 954 m -7 954 l 104 954 l 188 1103 l 465 1103 l 542 1006 l 604 1103 l 792 1103 l 696 954 l 903 954 l 903 1154 l -7 1154 l -7 954 m 450 800 q 309 781 379 800 q 183 726 239 763 q 90 638 126 690 q 47 517 53 585 l 47 0 l 236 0 l 236 497 q 315 599 257 564 q 447 633 372 633 q 517 623 481 633 q 585 592 554 613 q 636 543 615 572 q 660 476 657 514 l 660 431 l 308 431 l 308 242 l 660 242 l 660 0 l 849 0 l 849 515 q 804 640 843 586 q 708 728 765 693 q 583 782 651 764 q 450 800 514 800 z "},"ä":{"ha":896,"x_min":-6,"x_max":901,"o":"m -6 1154 l -6 954 l 186 954 l 186 1103 l 375 1103 l 375 954 l 518 954 l 518 1103 l 707 1103 l 707 954 l 901 954 l 901 1154 l -6 1154 m -6 -160 l -6 -360 l 901 -360 l 901 -160 l -6 -160 m 450 800 q 309 781 379 800 q 183 726 239 763 q 90 638 126 690 q 47 517 53 585 l 47 0 l 236 0 l 236 497 q 315 599 257 564 q 447 633 372 633 q 517 623 481 633 q 585 592 554 613 q 636 543 615 572 q 660 476 657 514 l 660 431 l 308 431 l 308 242 l 660 242 l 660 0 l 849 0 l 849 515 q 804 640 843 586 q 708 728 765 693 q 583 782 651 764 q 450 800 514 800 z "},"å":{"ha":896,"x_min":-6,"x_max":901,"o":"m -6 1154 l -6 954 l 353 954 l 353 1103 l 540 1103 l 540 954 l 901 954 l 901 1154 l -6 1154 m -6 -160 l -6 -360 l 901 -360 l 901 -160 l -6 -160 m 450 800 q 309 781 379 800 q 183 726 239 763 q 90 638 126 690 q 47 517 53 585 l 47 0 l 236 0 l 236 497 q 315 599 257 564 q 447 633 372 633 q 517 623 481 633 q 585 592 554 613 q 636 543 615 572 q 660 476 657 514 l 660 431 l 308 431 l 308 242 l 660 242 l 660 0 l 849 0 l 849 515 q 804 640 843 586 q 708 728 765 693 q 583 782 651 764 q 450 800 514 800 z "},"æ":{"ha":1429,"x_min":-6,"x_max":1436,"o":"m 1382 0 l 1088 0 q 965 24 1028 0 q 849 88 903 47 l 849 0 l 660 0 l 660 242 l 308 242 l 308 431 l 660 431 l 660 476 q 636 543 657 514 q 585 592 615 572 q 517 623 554 613 q 447 633 481 633 q 315 599 372 633 q 236 497 257 564 l 236 0 l 47 0 l 47 517 q 90 638 53 585 q 183 726 126 690 q 309 781 239 763 q 450 800 379 800 q 544 791 496 800 q 637 764 592 782 q 722 719 682 746 q 790 656 761 692 q 932 756 853 718 q 1088 794 1011 794 l 1382 794 l 1382 628 l 1090 628 q 1020 607 1057 628 q 952 554 983 586 q 900 483 921 522 q 878 406 879 443 l 878 386 q 899 310 878 349 q 951 239 919 271 q 1020 187 983 207 q 1090 167 1057 167 l 1382 167 l 1382 0 m -6 1154 l 1436 1154 l 1436 954 l -6 954 l -6 1154 m -6 -160 l 1436 -160 l 1436 -360 l -6 -360 l -6 -160 m 1338 492 l 1338 303 l 982 303 l 982 492 l 1338 492 z "},"ç":{"ha":783,"x_min":-6,"x_max":790,"o":"m 503 -160 l 274 -160 l 274 -96 l 363 -96 l 363 11 q 251 57 306 25 q 152 133 196 89 q 80 233 108 178 q 47 347 51 288 l 47 447 q 92 581 53 518 q 188 692 131 644 q 313 767 244 739 q 446 794 381 794 l 736 794 l 736 628 l 449 628 q 378 608 415 628 q 310 556 342 588 q 257 485 278 524 q 236 408 236 446 l 236 389 q 258 312 238 351 q 310 240 279 272 q 378 188 342 208 q 449 167 415 167 l 736 167 l 736 0 l 503 0 l 503 -160 m -6 954 l -6 1154 l 790 1154 l 790 954 l -6 954 m 274 -218 l 503 -218 l 503 -160 l 789 -160 l 789 -360 l -6 -360 l -6 -160 l 274 -160 l 274 -218 z "},"è":{"ha":783,"x_min":-7,"x_max":790,"o":"m 736 0 l 736 167 l 449 167 q 378 187 415 167 q 310 239 342 207 q 257 310 278 271 q 236 386 236 349 l 236 406 q 258 483 238 443 q 310 554 279 522 q 378 607 342 586 q 449 628 415 628 l 736 628 l 736 794 l 446 794 q 313 767 381 794 q 188 692 244 739 q 92 581 131 644 q 47 447 53 518 l 47 347 q 92 213 53 276 q 188 103 131 150 q 313 28 244 56 q 446 0 381 0 l 736 0 m 692 492 l 340 492 l 340 303 l 692 303 l 692 492 m -6 -160 l -6 -360 l 790 -360 l 790 -160 l -6 -160 m 789 954 l 789 1154 l -7 1154 l -7 954 l 375 954 l 260 1103 l 456 1103 l 546 954 l 789 954 z "},"é":{"ha":783,"x_min":-6,"x_max":790,"o":"m 736 0 l 736 167 l 449 167 q 378 187 415 167 q 310 239 342 207 q 257 310 278 271 q 236 386 236 349 l 236 406 q 258 483 238 443 q 310 554 279 522 q 378 607 342 586 q 449 628 415 628 l 736 628 l 736 794 l 446 794 q 313 767 381 794 q 188 692 244 739 q 92 581 131 644 q 47 447 53 518 l 47 347 q 92 213 53 276 q 188 103 131 150 q 313 28 244 56 q 446 0 381 0 l 736 0 m 692 492 l 340 492 l 340 303 l 692 303 l 692 492 m -6 -160 l -6 -360 l 790 -360 l 790 -160 l -6 -160 m -6 1154 l -6 954 l 315 954 l 406 1103 l 601 1103 l 486 954 l 789 954 l 789 1154 l -6 1154 z "},"ê":{"ha":783,"x_min":-6,"x_max":790,"o":"m 736 0 l 736 167 l 449 167 q 378 187 415 167 q 310 239 342 207 q 257 310 278 271 q 236 386 236 349 l 236 406 q 258 483 238 443 q 310 554 279 522 q 378 607 342 586 q 449 628 415 628 l 736 628 l 736 794 l 446 794 q 313 767 381 794 q 188 692 244 739 q 92 581 131 644 q 47 447 53 518 l 47 347 q 92 213 53 276 q 188 103 131 150 q 313 28 244 56 q 446 0 381 0 l 736 0 m 692 492 l 340 492 l 340 303 l 692 303 l 692 492 m -6 -160 l -6 -360 l 790 -360 l 790 -160 l -6 -160 m 485 954 l 424 1050 l 372 954 l 485 954 m -6 1154 l -6 954 l 169 954 l 253 1103 l 593 1103 l 688 954 l 790 954 l 790 1154 l -6 1154 z "},"ë":{"ha":783,"x_min":-6,"x_max":790,"o":"m 736 0 l 736 167 l 449 167 q 378 187 415 167 q 310 239 342 207 q 257 310 278 271 q 236 386 236 349 l 236 406 q 258 483 238 443 q 310 554 279 522 q 378 607 342 586 q 449 628 415 628 l 736 628 l 736 794 l 446 794 q 313 767 381 794 q 188 692 244 739 q 92 581 131 644 q 47 447 53 518 l 47 347 q 92 213 53 276 q 188 103 131 150 q 313 28 244 56 q 446 0 381 0 l 736 0 m 692 492 l 340 492 l 340 303 l 692 303 l 692 492 m -6 -160 l -6 -360 l 790 -360 l 790 -160 l -6 -160 m -6 1154 l -6 954 l 169 954 l 169 1103 l 358 1103 l 358 954 l 501 954 l 501 1103 l 690 1103 l 690 954 l 790 954 l 790 1154 l -6 1154 z "},"ì":{"ha":283,"x_min":-29,"x_max":313,"o":"m 313 954 l 313 1154 l -29 1154 l -29 954 l 108 954 l -7 1103 l 189 1103 l 279 954 l 313 954 m 47 0 l 236 0 l 236 794 l 47 794 l 47 0 m -6 -160 l -6 -360 l 290 -360 l 290 -160 l -6 -160 z "},"í":{"ha":283,"x_min":-29,"x_max":313,"o":"m 289 -360 l 289 -160 l -7 -160 l -7 -360 l 289 -360 m 47 0 l 236 0 l 236 794 l 47 794 l 47 0 m -29 1154 l -29 954 l 4 954 l 94 1103 l 290 1103 l 175 954 l 313 954 l 313 1154 l -29 1154 z "},"î":{"ha":283,"x_min":-153,"x_max":432,"o":"m 196 954 l 135 1050 l 83 954 l 196 954 m -153 1154 l -153 954 l -119 954 l -36 1103 l 304 1103 l 399 954 l 432 954 l 432 1154 l -153 1154 m 47 0 l 236 0 l 236 794 l 47 794 l 47 0 m -6 -160 l -6 -360 l 290 -360 l 290 -160 l -6 -160 z "},"ï":{"ha":283,"x_min":-181,"x_max":465,"o":"m -181 1154 l -181 954 l -119 954 l -119 1103 l 69 1103 l 69 954 l 213 954 l 213 1103 l 401 1103 l 401 954 l 465 954 l 465 1154 l -181 1154 m 47 0 l 236 0 l 236 794 l 47 794 l 47 0 m -6 -160 l -6 -360 l 290 -360 l 290 -160 l -6 -160 z "},"ð":{"ha":897,"x_min":-7,"x_max":904,"o":"m 238 236 l 238 303 l 633 303 q 597 251 618 275 q 550 208 575 226 q 499 178 525 189 q 449 167 472 167 l 426 167 q 360 169 394 167 q 299 179 326 172 q 255 200 272 186 q 238 236 238 214 m 903 -360 l 903 -160 l -6 -160 l -6 -360 l 903 -360 m 904 954 l 904 1154 l -7 1154 l -7 954 l 904 954 m 283 628 l 283 544 l 472 544 l 472 625 q 563 578 517 615 q 638 492 610 540 l 47 492 l 47 260 q 66 153 47 197 q 116 80 85 110 q 188 33 147 50 q 275 8 229 17 q 368 -3 321 -1 q 458 -6 415 -6 l 486 -6 q 613 23 550 -6 q 727 100 676 51 q 811 213 778 149 q 850 347 844 276 l 850 447 q 808 576 844 515 q 719 683 772 636 q 600 760 665 731 q 472 793 535 789 l 472 883 l 283 883 l 283 794 l 49 794 l 49 628 l 283 628 z "},"ñ":{"ha":896,"x_min":-7,"x_max":904,"o":"m 450 800 q 309 781 379 800 q 183 726 239 763 q 90 638 126 690 q 47 517 53 585 l 47 0 l 236 0 l 236 497 q 315 599 257 564 q 447 633 372 633 q 517 623 481 633 q 585 592 554 613 q 636 543 615 572 q 660 476 657 514 l 660 0 l 849 0 l 849 515 q 804 640 843 586 q 708 728 765 693 q 583 782 651 764 q 450 800 514 800 m -6 -160 l -6 -360 l 904 -360 l 904 -160 l -6 -160 m 432 954 l 358 1050 l 307 954 l 432 954 m -7 954 l 104 954 l 188 1103 l 465 1103 l 542 1006 l 604 1103 l 792 1103 l 696 954 l 903 954 l 903 1154 l -7 1154 l -7 954 z "},"ò":{"ha":896,"x_min":-7,"x_max":900,"o":"m 900 -160 l -7 -160 l -7 -360 l 900 -360 l 900 -160 m 900 954 l 900 1154 l -7 1154 l -7 954 l 392 954 l 276 1103 l 472 1103 l 563 954 l 900 954 m 226 396 q 246 486 226 443 q 297 561 265 529 q 368 613 328 593 q 451 632 408 632 q 535 615 494 632 q 606 566 575 597 q 655 491 636 535 q 674 396 674 447 q 655 303 674 346 q 606 229 636 260 q 535 181 575 199 q 451 164 494 164 q 368 183 408 164 q 297 233 328 201 q 246 306 265 264 q 226 396 226 349 m 43 396 q 73 241 43 314 q 157 113 103 168 q 286 25 211 57 q 451 -7 361 -7 q 615 25 540 -7 q 744 113 690 57 q 829 241 799 168 q 860 396 860 314 q 831 551 860 478 q 747 681 801 625 q 618 769 693 736 q 451 801 543 801 q 284 769 360 801 q 155 681 208 736 q 72 551 101 625 q 43 396 43 478 z "},"ó":{"ha":896,"x_min":-6,"x_max":901,"o":"m -6 1154 l -6 954 l 332 954 l 422 1103 l 618 1103 l 503 954 l 901 954 l 901 1154 l -6 1154 m 901 -160 l -6 -160 l -6 -360 l 901 -360 l 901 -160 m 226 396 q 246 486 226 443 q 297 561 265 529 q 368 613 328 593 q 451 632 408 632 q 535 615 494 632 q 606 566 575 597 q 655 491 636 535 q 674 396 674 447 q 655 303 674 346 q 606 229 636 260 q 535 181 575 199 q 451 164 494 164 q 368 183 408 164 q 297 233 328 201 q 246 306 265 264 q 226 396 226 349 m 43 396 q 73 241 43 314 q 157 113 103 168 q 286 25 211 57 q 451 -7 361 -7 q 615 25 540 -7 q 744 113 690 57 q 829 241 799 168 q 860 396 860 314 q 831 551 860 478 q 747 681 801 625 q 618 769 693 736 q 451 801 543 801 q 284 769 360 801 q 155 681 208 736 q 72 551 101 625 q 43 396 43 478 z "},"ô":{"ha":896,"x_min":-6,"x_max":901,"o":"m 501 954 l 440 1050 l 389 954 l 501 954 m -6 1154 l -6 954 l 186 954 l 269 1103 l 610 1103 l 704 954 l 901 954 l 901 1154 l -6 1154 m 901 -160 l -6 -160 l -6 -360 l 901 -360 l 901 -160 m 226 396 q 246 486 226 443 q 297 561 265 529 q 368 613 328 593 q 451 632 408 632 q 535 615 494 632 q 606 566 575 597 q 655 491 636 535 q 674 396 674 447 q 655 303 674 346 q 606 229 636 260 q 535 181 575 199 q 451 164 494 164 q 368 183 408 164 q 297 233 328 201 q 246 306 265 264 q 226 396 226 349 m 43 396 q 73 241 43 314 q 157 113 103 168 q 286 25 211 57 q 451 -7 361 -7 q 615 25 540 -7 q 744 113 690 57 q 829 241 799 168 q 860 396 860 314 q 831 551 860 478 q 747 681 801 625 q 618 769 693 736 q 451 801 543 801 q 284 769 360 801 q 155 681 208 736 q 72 551 101 625 q 43 396 43 478 z "},"õ":{"ha":896,"x_min":-7,"x_max":904,"o":"m -6 -160 l -6 -360 l 904 -360 l 904 -160 l -6 -160 m 432 954 l 358 1050 l 307 954 l 432 954 m -7 954 l 104 954 l 188 1103 l 465 1103 l 542 1006 l 604 1103 l 792 1103 l 696 954 l 903 954 l 903 1154 l -7 1154 l -7 954 m 226 396 q 246 486 226 443 q 297 561 265 529 q 368 613 328 593 q 451 632 408 632 q 535 615 494 632 q 606 566 575 597 q 655 491 636 535 q 674 396 674 447 q 655 303 674 346 q 606 229 636 260 q 535 181 575 199 q 451 164 494 164 q 368 183 408 164 q 297 233 328 201 q 246 306 265 264 q 226 396 226 349 m 43 396 q 73 241 43 314 q 157 113 103 168 q 286 25 211 57 q 451 -7 361 -7 q 615 25 540 -7 q 744 113 690 57 q 829 241 799 168 q 860 396 860 314 q 831 551 860 478 q 747 681 801 625 q 618 769 693 736 q 451 801 543 801 q 284 769 360 801 q 155 681 208 736 q 72 551 101 625 q 43 396 43 478 z "},"ö":{"ha":896,"x_min":-6,"x_max":901,"o":"m -6 1154 l -6 954 l 186 954 l 186 1103 l 375 1103 l 375 954 l 518 954 l 518 1103 l 707 1103 l 707 954 l 901 954 l 901 1154 l -6 1154 m -6 -160 l -6 -360 l 901 -360 l 901 -160 l -6 -160 m 226 396 q 246 486 226 443 q 297 561 265 529 q 368 613 328 593 q 451 632 408 632 q 535 615 494 632 q 606 566 575 597 q 655 491 636 535 q 674 396 674 447 q 655 303 674 346 q 606 229 636 260 q 535 181 575 199 q 451 164 494 164 q 368 183 408 164 q 297 233 328 201 q 246 306 265 264 q 226 396 226 349 m 43 396 q 73 241 43 314 q 157 113 103 168 q 286 25 211 57 q 451 -7 361 -7 q 615 25 540 -7 q 744 113 690 57 q 829 241 799 168 q 860 396 860 314 q 831 551 860 478 q 747 681 801 625 q 618 769 693 736 q 451 801 543 801 q 284 769 360 801 q 155 681 208 736 q 72 551 101 625 q 43 396 43 478 z "},"÷":{"ha":607,"x_min":-6,"x_max":615,"o":"m 208 64 l 397 64 l 397 253 l 208 253 l 208 64 m 208 539 l 397 539 l 397 728 l 208 728 l 208 539 m 614 -160 l -6 -160 l -6 -360 l 614 -360 l 614 -160 m 615 1154 l -6 1154 l -6 954 l 615 954 l 615 1154 m 46 303 l 560 303 l 560 492 l 46 492 l 46 303 z "},"ø":{"ha":903,"x_min":-6,"x_max":910,"o":"m 43 396 q 72 551 43 478 q 155 681 101 625 q 284 769 208 736 q 451 801 360 801 q 492 799 472 801 q 531 794 511 797 l 719 794 l 690 728 q 815 585 771 672 q 860 396 860 497 q 829 241 860 314 q 744 113 799 168 q 615 25 690 57 q 451 -7 540 -7 q 411 -5 431 -7 q 372 0 392 -3 l 182 0 l 210 67 q 87 209 131 122 q 43 396 43 296 m -6 1154 l 910 1154 l 910 954 l -6 954 l -6 1154 m -6 -160 l 910 -160 l 910 -360 l -6 -360 l -6 -160 m 617 553 l 451 164 q 535 181 494 164 q 606 229 575 199 q 655 303 636 260 q 674 396 674 346 q 658 483 674 443 q 617 553 643 522 m 226 396 q 285 244 226 307 l 449 632 q 366 611 406 631 q 295 560 326 592 q 245 485 264 528 q 226 396 226 443 z "},"ù":{"ha":896,"x_min":-7,"x_max":903,"o":"m 444 -6 q 585 13 515 -6 q 712 68 656 32 q 805 157 768 104 q 847 278 842 210 l 847 794 l 658 794 l 658 297 q 580 196 638 231 q 447 161 522 161 q 377 172 414 161 q 310 202 340 182 q 258 251 279 222 q 235 318 238 281 l 235 794 l 46 794 l 46 279 q 90 155 51 208 q 186 66 129 101 q 311 13 243 31 q 444 -6 379 -6 m 901 -160 l -7 -160 l -7 -360 l 901 -360 l 901 -160 m 903 954 l 903 1154 l -7 1154 l -7 954 l 392 954 l 276 1103 l 472 1103 l 563 954 l 903 954 z "},"ú":{"ha":896,"x_min":-6,"x_max":901,"o":"m -6 1154 l -6 954 l 332 954 l 422 1103 l 618 1103 l 503 954 l 901 954 l 901 1154 l -6 1154 m 901 -160 l -6 -160 l -6 -360 l 901 -360 l 901 -160 m 450 -6 q 583 13 514 -6 q 708 66 651 31 q 804 155 765 101 q 849 279 843 208 l 849 794 l 660 794 l 660 318 q 636 251 657 281 q 585 202 615 222 q 517 172 554 182 q 447 161 481 161 q 315 196 372 161 q 236 297 257 231 l 236 794 l 47 794 l 47 278 q 90 157 53 210 q 183 68 126 104 q 309 13 239 32 q 450 -6 379 -6 z "},"û":{"ha":896,"x_min":-6,"x_max":901,"o":"m 501 954 l 440 1050 l 389 954 l 501 954 m -6 1154 l -6 954 l 186 954 l 269 1103 l 610 1103 l 704 954 l 901 954 l 901 1154 l -6 1154 m 901 -160 l -6 -160 l -6 -360 l 901 -360 l 901 -160 m 450 -6 q 583 13 514 -6 q 708 66 651 31 q 804 155 765 101 q 849 279 843 208 l 849 794 l 660 794 l 660 318 q 636 251 657 281 q 585 202 615 222 q 517 172 554 182 q 447 161 481 161 q 315 196 372 161 q 236 297 257 231 l 236 794 l 47 794 l 47 278 q 90 157 53 210 q 183 68 126 104 q 309 13 239 32 q 450 -6 379 -6 z "},"ü":{"ha":896,"x_min":-6,"x_max":901,"o":"m -6 1154 l -6 954 l 186 954 l 186 1103 l 375 1103 l 375 954 l 518 954 l 518 1103 l 707 1103 l 707 954 l 901 954 l 901 1154 l -6 1154 m -6 -160 l -6 -360 l 901 -360 l 901 -160 l -6 -160 m 450 -6 q 583 13 514 -6 q 708 66 651 31 q 804 155 765 101 q 849 279 843 208 l 849 794 l 660 794 l 660 318 q 636 251 657 281 q 585 202 615 222 q 517 172 554 182 q 447 161 481 161 q 315 196 372 161 q 236 297 257 231 l 236 794 l 47 794 l 47 278 q 90 157 53 210 q 183 68 126 104 q 309 13 239 32 q 450 -6 379 -6 z "},"ý":{"ha":896,"x_min":-6,"x_max":901,"o":"m -6 1154 l -6 954 l 329 954 l 419 1103 l 615 1103 l 500 954 l 901 954 l 901 1154 l -6 1154 m 901 -160 l -6 -160 l -6 -360 l 901 -360 l 901 -160 m 353 0 l 542 0 l 542 239 q 650 271 597 249 q 746 328 703 293 q 817 410 789 363 q 849 515 844 457 l 849 794 l 660 794 l 660 554 q 636 488 657 517 q 585 438 615 458 q 517 408 554 418 q 447 397 481 397 q 315 432 372 397 q 236 533 257 467 l 236 794 l 47 794 l 47 514 q 78 411 51 457 q 146 331 104 365 q 241 273 188 296 q 353 239 294 250 l 353 0 z "},"þ":{"ha":899,"x_min":-6,"x_max":907,"o":"m 907 -160 l -6 -160 l -6 -360 l 907 -360 l 907 -160 m 907 1154 l -6 1154 l -6 954 l 907 954 l 907 1154 m 47 794 l 47 0 l 236 0 l 236 504 l 432 504 q 505 500 465 504 q 578 485 544 496 q 635 455 613 474 q 658 406 658 436 q 598 327 658 349 q 432 306 538 306 l 308 306 l 308 119 l 379 119 q 483 122 429 119 q 590 134 538 125 q 690 162 642 143 q 773 213 738 181 q 830 294 808 246 q 851 411 851 343 q 813 554 851 503 q 715 632 774 606 q 584 665 656 658 q 449 671 513 671 l 236 671 l 236 794 l 47 794 z "},"ÿ":{"ha":896,"x_min":-6,"x_max":901,"o":"m -6 1154 l -6 954 l 186 954 l 186 1103 l 375 1103 l 375 954 l 518 954 l 518 1103 l 707 1103 l 707 954 l 901 954 l 901 1154 l -6 1154 m -6 -160 l -6 -360 l 901 -360 l 901 -160 l -6 -160 m 353 0 l 542 0 l 542 239 q 650 271 597 249 q 746 328 703 293 q 817 410 789 363 q 849 515 844 457 l 849 794 l 660 794 l 660 554 q 636 488 657 517 q 585 438 615 458 q 517 408 554 418 q 447 397 481 397 q 315 432 372 397 q 236 533 257 467 l 236 794 l 47 794 l 47 514 q 78 411 51 457 q 146 331 104 365 q 241 273 188 296 q 353 239 294 250 l 353 0 z "}}}
